<svg width="107" height="34" viewBox="0 0 107 34" fill="none" xmlns="http://www.w3.org/2000/svg">
<path d="M6.715 9.28605C8.29285 9.28605 9.55879 9.58878 10.5128 10.1942C11.4852 10.7997 11.9714 11.7721 11.9714 13.1114C11.9714 13.7719 11.7788 14.3131 11.3935 14.7351C11.0082 15.1387 10.4853 15.3406 9.82482 15.3406C9.18268 15.3406 8.70565 15.1938 8.39376 14.9002C8.54053 14.4966 8.61392 14.0379 8.61392 13.5242C8.61392 11.9097 7.89839 11.1024 6.46732 11.1024C5.77013 11.1024 5.21972 11.2767 4.81609 11.6253C4.4308 11.9555 4.23816 12.4509 4.23816 13.1114C4.23816 13.7169 4.39411 14.2673 4.70601 14.7626C5.01791 15.258 5.40319 15.6983 5.86187 16.0836C6.33889 16.4689 6.98104 16.9368 7.7883 17.4872C8.74235 18.1293 9.50375 18.7072 10.0725 19.221C10.6596 19.7163 11.155 20.3218 11.5586 21.0373C11.9622 21.7345 12.1641 22.5418 12.1641 23.4591C12.1641 25.092 11.6045 26.3579 10.4853 27.2569C9.36615 28.1559 7.91673 28.6055 6.13707 28.6055C4.52254 28.6055 3.18321 28.2844 2.11908 27.6422C1.0733 26.9817 0.55041 25.9635 0.55041 24.5875C0.55041 23.927 0.743054 23.3949 1.12834 22.9913C1.51363 22.5693 2.02734 22.3583 2.66949 22.3583C3.31163 22.3583 3.78866 22.5051 4.10056 22.7986C3.97213 23.1656 3.90791 23.6242 3.90791 24.1746C3.90791 25.9176 4.73353 26.7891 6.38476 26.7891C7.19203 26.7891 7.85252 26.5689 8.36623 26.1286C8.87995 25.6699 9.13681 25.0553 9.13681 24.2847C9.13681 23.6793 8.98086 23.1289 8.66896 22.6335C8.35706 22.1381 7.9626 21.6978 7.48558 21.3125C7.0269 20.9272 6.39393 20.4594 5.58666 19.909C4.63262 19.2668 3.86204 18.6981 3.27494 18.2027C2.70618 17.689 2.21999 17.0835 1.81635 16.3863C1.41272 15.6708 1.2109 14.8544 1.2109 13.937C1.2109 12.4693 1.72462 11.3317 2.75205 10.5245C3.79783 9.69886 5.11881 9.28605 6.715 9.28605ZM16.3384 8.18523C16.9438 8.18523 17.43 8.33201 17.797 8.62556C18.1822 8.91911 18.3749 9.34109 18.3749 9.8915C18.3749 10.4603 18.1731 10.9006 17.7694 11.2125C17.3841 11.506 16.8796 11.6528 16.2558 11.6528C15.6504 11.6528 15.1642 11.506 14.7972 11.2125C14.4303 10.9189 14.2468 10.497 14.2468 9.94655C14.2468 9.37779 14.4395 8.94663 14.8247 8.65308C15.2284 8.34118 15.7329 8.18523 16.3384 8.18523ZM17.7694 25.7433C17.7694 26.6423 18.0538 27.2478 18.6226 27.5597C18.4758 27.8349 18.2373 28.0459 17.907 28.1926C17.5768 28.3394 17.219 28.4128 16.8337 28.4128C16.1365 28.4128 15.6137 28.211 15.2651 27.8074C14.9165 27.4037 14.7422 26.835 14.7422 26.1011V13.9645H17.7694V25.7433ZM21.5161 13.9645L24.048 13.6343L24.1856 16.1111C24.5342 15.2305 25.0662 14.5608 25.7818 14.1021C26.5157 13.6435 27.3688 13.4141 28.3412 13.4141C29.4237 13.4141 30.2676 13.6343 30.8731 14.0746C31.4785 14.4966 31.9097 15.1296 32.1665 15.9735C32.8821 14.2673 34.1847 13.4141 36.0744 13.4141C37.6156 13.4141 38.6889 13.8453 39.2943 14.7076C39.8998 15.5516 40.2025 16.845 40.2025 18.588V25.7433C40.2025 26.6423 40.4869 27.2478 41.0557 27.5597C40.9089 27.8349 40.6704 28.0459 40.3401 28.1926C40.0099 28.3394 39.6613 28.4128 39.2943 28.4128C38.5788 28.4128 38.0467 28.211 37.6982 27.8074C37.3496 27.4037 37.1753 26.835 37.1753 26.1011V18.9733C37.1753 17.8174 37.0468 16.9551 36.79 16.3863C36.5331 15.8176 35.9644 15.5332 35.0837 15.5332C34.0379 15.5332 33.3407 16.0286 32.9921 17.0193C32.6436 18.0101 32.4693 19.2852 32.4693 20.8447V28H29.442V18.9733C29.442 17.8174 29.3136 16.9551 29.0567 16.3863C28.7999 15.8176 28.2311 15.5332 27.3504 15.5332C26.2313 15.5332 25.479 16.0286 25.0938 17.0193C24.7268 18.0101 24.5433 19.2852 24.5433 20.8447V28H21.5161V13.9645ZM50.6766 13.4141C52.4013 13.4141 53.6305 14.1113 54.3644 15.5057C55.0983 16.8817 55.4652 18.643 55.4652 20.7896C55.4652 23.138 54.9607 25.0278 53.9516 26.4589C52.9425 27.8899 51.3922 28.6055 49.3006 28.6055C48.42 28.6055 47.6219 28.4862 46.9063 28.2477V32.9812L43.8791 33.3115V13.9645L46.411 13.6343L46.5486 16.1111C47.3191 14.3131 48.6952 13.4141 50.6766 13.4141ZM49.6034 15.5332C48.6493 15.5332 47.9613 15.9185 47.5393 16.6891C47.1173 17.4413 46.9063 18.3953 46.9063 19.5512V26.1011C47.7503 26.6698 48.5943 26.9542 49.4382 26.9542C50.5574 26.9542 51.2913 26.3855 51.6399 25.2479C51.9885 24.1104 52.1628 22.6702 52.1628 20.9272C52.1628 19.2943 52.0068 17.9917 51.6949 17.0193C51.383 16.0286 50.6858 15.5332 49.6034 15.5332ZM61.2566 8.4054V25.7433C61.2566 26.6423 61.5409 27.2478 62.1097 27.5597C61.9629 27.8349 61.7152 28.0459 61.3666 28.1926C61.0364 28.3394 60.6878 28.4128 60.3209 28.4128C59.6237 28.4128 59.1008 28.211 58.7522 27.8074C58.4036 27.4037 58.2293 26.835 58.2293 26.1011V8.73564L61.2566 8.4054ZM73.9698 24.1196C74.3917 24.3214 74.6027 24.7159 74.6027 25.303C74.6027 25.9635 74.3826 26.5506 73.9422 27.0643C73.5019 27.5597 72.9331 27.9358 72.236 28.1926C71.5388 28.4678 70.8324 28.6055 70.1169 28.6055C68.0987 28.6055 66.6034 27.9541 65.631 26.6515C64.6586 25.3305 64.1725 23.56 64.1725 21.34C64.1725 18.9733 64.6953 17.0652 65.7411 15.6158C66.8052 14.148 68.4106 13.4141 70.5572 13.4141C71.9149 13.4141 73.0065 13.7719 73.8321 14.4874C74.6578 15.1846 75.0706 16.1754 75.0706 17.4596C75.0706 19.0558 74.511 20.175 73.3918 20.8171C72.291 21.4593 70.7865 21.7804 68.8785 21.7804C68.3464 21.7804 67.8419 21.762 67.3648 21.7253C67.4199 23.1747 67.6584 24.3306 68.0804 25.1929C68.5207 26.0552 69.2913 26.4864 70.3921 26.4864C71.1994 26.4864 71.9057 26.2846 72.5112 25.8809C73.135 25.4589 73.6212 24.8718 73.9698 24.1196ZM70.1169 14.9828C69.1261 14.9828 68.429 15.5057 68.0253 16.5515C67.6217 17.5789 67.4015 18.8448 67.3648 20.3493C67.9152 20.386 68.3189 20.4043 68.5757 20.4043C70.8875 20.4043 72.0433 19.4778 72.0433 17.6248C72.0433 16.8725 71.8782 16.2487 71.5479 15.7534C71.236 15.2397 70.759 14.9828 70.1169 14.9828Z" fill="#157FCC"/>
<rect x="75.6074" y="17.8661" width="12.9465" height="1.55358" rx="0.776788" fill="#8FC038"/>
<rect x="75.6074" y="10.875" width="6.73217" height="1.55358" rx="0.776788" fill="#8FC038"/>
<rect x="77.4199" y="30.5537" width="23.5626" height="1.55358" rx="0.776788" transform="rotate(-90 77.4199 30.5537)" fill="#8FC038"/>
<rect x="103.054" y="30.5537" width="23.5626" height="1.55358" rx="0.776788" transform="rotate(-90 103.054 30.5537)" fill="#8FC038"/>
<path d="M87.8544 28.5507C86.6097 28.5507 85.5977 29.7179 85.5977 31.1535C85.5977 32.5891 86.6097 33.7563 87.8544 33.7563C89.0992 33.7563 90.1112 32.5891 90.1112 31.1535C90.1112 29.7179 89.0992 28.5507 87.8544 28.5507Z" fill="#8FC038"/>
<path d="M94.1728 20.2216C92.928 20.2216 91.916 21.3888 91.916 22.8244C91.916 24.26 92.928 25.4272 94.1728 25.4272C95.4176 25.4272 96.4296 24.26 96.4296 22.8244C96.4296 21.3888 95.4176 20.2216 94.1728 20.2216Z" fill="#8FC038"/>
<path d="M87.8544 17.0982C89.0992 17.0982 90.1112 15.931 90.1112 14.4954C90.1112 13.0598 89.0992 11.8926 87.8544 11.8926C86.6097 11.8926 85.5977 13.0598 85.5977 14.4954C85.5977 15.931 86.6097 17.0982 87.8544 17.0982Z" fill="#8FC038"/>
<path d="M83.5605 17.0982C84.8053 17.0982 85.8173 15.931 85.8173 14.4954C85.8173 13.0598 84.8053 11.8926 83.5605 11.8926C82.3157 11.8926 81.3037 13.0598 81.3037 14.4954C81.3037 15.931 82.3157 17.0982 83.5605 17.0982Z" fill="#8FC038"/>
<rect width="6.73217" height="1.55358" rx="0.776788" transform="matrix(-1 0 0 1 106.532 17.9397)" fill="#8FC038"/>
<path d="M98.5782 25.2462C97.3334 25.2462 96.3214 24.079 96.3214 22.6434C96.3214 21.2077 97.3334 20.0405 98.5782 20.0405C99.8229 20.0405 100.835 21.2077 100.835 22.6434C100.835 24.079 99.8229 25.2462 98.5782 25.2462Z" fill="#8FC038"/>
<rect x="75.3486" y="25.1897" width="6.73217" height="1.55358" rx="0.776788" fill="#8FC038"/>
<path d="M83.3017 33.6079C84.5465 33.6079 85.5585 32.4407 85.5585 31.005C85.5585 29.5694 84.5465 28.4022 83.3017 28.4022C82.0569 28.4022 81.0449 29.5694 81.0449 31.005C81.0449 32.4407 82.0569 33.6079 83.3017 33.6079Z" fill="#8FC038"/>
<path d="M89.7753 25.5448C91.0201 25.5448 92.0321 24.3776 92.0321 22.9419C92.0321 21.5063 91.0201 20.3391 89.7753 20.3391C88.5306 20.3391 87.5186 21.5063 87.5186 22.9419C87.5186 24.3776 88.5306 25.5448 89.7753 25.5448Z" fill="#8FC038"/>
<rect width="12.9465" height="1.55358" rx="0.776788" transform="matrix(-1 0 0 1 106.532 25.1162)" fill="#8FC038"/>
<path d="M92.3643 33.9065C91.1196 33.9065 90.1075 32.7392 90.1075 31.3036C90.1075 29.868 91.1196 28.7008 92.3643 28.7008C93.6091 28.7008 94.6211 29.868 94.6211 31.3036C94.6211 32.7392 93.6091 33.9065 92.3643 33.9065Z" fill="#8FC038"/>
<rect width="12.9465" height="1.55358" rx="0.776788" transform="matrix(-1 0 0 1 106.532 10.6161)" fill="#8FC038"/>
<path d="M92.3643 17.1831C91.1196 17.1831 90.1075 16.0159 90.1075 14.5802C90.1075 13.1446 91.1196 11.9774 92.3643 11.9774C93.6091 11.9774 94.6211 13.1446 94.6211 14.5802C94.6211 16.0159 93.6091 17.1831 92.3643 17.1831Z" fill="#8FC038"/>
<path d="M94.1767 25.5448C95.4215 25.5448 96.4335 24.3776 96.4335 22.9419C96.4335 21.5063 95.4215 20.3391 94.1767 20.3391C92.9319 20.3391 91.9199 21.5063 91.9199 22.9419C91.9199 24.3776 92.9319 25.5448 94.1767 25.5448Z" fill="#8FC038"/>
</svg>
