<svg width="25" height="25" viewBox="0 0 25 25" fill="none" xmlns="http://www.w3.org/2000/svg">
<g clip-path="url(#clip0)">
<path d="M12.4093 13.4707C12.4352 13.4707 12.4611 13.4707 12.4921 13.4707C12.5025 13.4707 12.5128 13.4707 12.5232 13.4707C12.5387 13.4707 12.5594 13.4707 12.575 13.4707C14.0918 13.4448 15.3188 12.9116 16.2248 11.8917C18.2179 9.64485 17.8866 5.79313 17.8504 5.42555C17.7209 2.66618 16.4163 1.34603 15.3395 0.729965C14.5371 0.269207 13.6 0.0207082 12.5542 0H12.518C12.5128 0 12.5025 0 12.4973 0H12.4662C11.8916 0 10.763 0.093187 9.68098 0.709257C8.5938 1.32533 7.26847 2.64548 7.13905 5.42555C7.10281 5.79313 6.77148 9.64485 8.76464 11.8917C9.66545 12.9116 10.8924 13.4448 12.4093 13.4707ZM8.52132 5.55498C8.52132 5.53945 8.5265 5.52392 8.5265 5.51356C8.69734 1.80162 11.3325 1.40298 12.4611 1.40298H12.4818C12.4921 1.40298 12.5077 1.40298 12.5232 1.40298C13.921 1.43404 16.2973 2.00352 16.4577 5.51356C16.4577 5.5291 16.4577 5.54463 16.4629 5.55498C16.4681 5.59122 16.8305 9.11162 15.1842 10.965C14.5319 11.7001 13.6621 12.0625 12.518 12.0729C12.5077 12.0729 12.5025 12.0729 12.4921 12.0729C12.4818 12.0729 12.4766 12.0729 12.4662 12.0729C11.3273 12.0625 10.4524 11.7001 9.80523 10.965C8.1641 9.12197 8.51614 5.58604 8.52132 5.55498Z" fill="#157FCC"/>
<path d="M23.1308 19.8592C23.1308 19.8541 23.1308 19.8489 23.1308 19.8437C23.1308 19.8023 23.1256 19.7609 23.1256 19.7143C23.0945 18.6892 23.0272 16.2922 20.7804 15.526C20.7648 15.5209 20.7441 15.5157 20.7286 15.5105C18.3938 14.9152 16.4524 13.5691 16.4317 13.5536C16.1159 13.331 15.681 13.4086 15.4584 13.7244C15.2358 14.0402 15.3134 14.4751 15.6292 14.6977C15.7172 14.7598 17.7777 16.1939 20.3559 16.8565C21.5621 17.2862 21.6967 18.5753 21.733 19.7557C21.733 19.8023 21.733 19.8437 21.7381 19.8851C21.7433 20.3511 21.7122 21.0707 21.6294 21.4848C20.7907 21.9611 17.5033 23.6074 12.5023 23.6074C7.52194 23.6074 4.2138 21.9559 3.36994 21.4797C3.28711 21.0655 3.25087 20.3459 3.26122 19.88C3.26122 19.8385 3.2664 19.7971 3.2664 19.7505C3.30264 18.5702 3.43724 17.2811 4.6435 16.8514C7.22167 16.1887 9.28214 14.7495 9.37015 14.6925C9.68595 14.4699 9.7636 14.0351 9.54099 13.7192C9.31838 13.4034 8.88351 13.3258 8.56771 13.5484C8.547 13.5639 6.61596 14.91 4.27075 15.5053C4.25004 15.5105 4.23451 15.5157 4.21898 15.5209C1.97214 16.2922 1.90484 18.6892 1.87377 19.7091C1.87377 19.7557 1.87377 19.7971 1.8686 19.8385C1.8686 19.8437 1.8686 19.8489 1.8686 19.8541C1.86342 20.1233 1.85824 21.5055 2.13263 22.1993C2.1844 22.3339 2.27758 22.4478 2.40183 22.5254C2.55714 22.629 6.27945 25.0001 12.5074 25.0001C18.7354 25.0001 22.4577 22.6238 22.6131 22.5254C22.7321 22.4478 22.8305 22.3339 22.8823 22.1993C23.1411 21.5107 23.1359 20.1284 23.1308 19.8592Z" fill="#157FCC"/>
</g>
<defs>
<clipPath id="clip0">
<rect width="25" height="25" fill="white"/>
</clipPath>
</defs>
</svg>
