<svg width="196" height="65" viewBox="0 0 196 65" fill="none" xmlns="http://www.w3.org/2000/svg">
<path d="M34.6418 6.14142L9.77075 10.0941C9.5352 10.1316 9.32419 10.2611 9.18412 10.4542L1.7133 20.7484C1.57318 20.9414 1.51546 21.1822 1.55285 21.4177L7.90542 61.389C7.94291 61.6246 8.07243 61.8356 8.26549 61.9756L11.3537 64.2169C11.5289 64.344 11.7441 64.4037 11.9598 64.385C12.1755 64.3663 12.3771 64.2704 12.5278 64.115L15.1879 61.37L18.5679 63.155C18.74 63.2459 18.9369 63.2785 19.1291 63.248C19.3213 63.2174 19.4984 63.1254 19.6338 62.9856L22.2945 60.2442L25.6701 62.0591C25.8434 62.1521 26.0425 62.1858 26.2368 62.1549C26.4311 62.1241 26.6099 62.0303 26.7458 61.8881L29.4003 59.1139L32.7799 60.8963C32.952 60.9872 33.1489 61.0198 33.3411 60.9893C33.5333 60.9587 33.7104 60.8667 33.8458 60.7269L36.5059 57.9819L39.8859 59.767C40.0774 59.8681 40.2988 59.8967 40.5097 59.8476C40.7205 59.7986 40.9066 59.6751 41.0337 59.4999L43.275 56.4116C43.4151 56.2186 43.4728 55.9778 43.4354 55.7423L35.6712 6.88851C35.6337 6.65293 35.5043 6.44187 35.3112 6.30177C35.1181 6.16166 34.8773 6.10399 34.6418 6.14142ZM9.36445 13.2678L10.2942 19.1178L4.44417 20.0475L9.36445 13.2678ZM41.6005 55.6569L40.0361 57.8125L36.7494 56.0763C36.5774 55.9854 36.3805 55.9528 36.1883 55.9834C35.9961 56.0139 35.819 56.106 35.6836 56.2457L33.0235 58.9907L29.6434 57.2057C29.4714 57.1148 29.2745 57.0822 29.0823 57.1127C28.8901 57.1433 28.713 57.2353 28.5775 57.3751L25.9219 60.1476L22.5428 58.3342C22.37 58.2421 22.1719 58.2089 21.9786 58.2396C21.7853 58.2704 21.6072 58.3633 21.4715 58.5044L18.8115 61.2494L15.4314 59.4644C15.2594 59.3735 15.0624 59.3409 14.8703 59.3714C14.6781 59.402 14.501 59.494 14.3655 59.6338L11.7791 62.3033L9.62348 60.7389L3.47052 22.0237L11.4648 20.7531C11.7004 20.7157 11.9114 20.5862 12.0515 20.3932C12.1916 20.2001 12.2493 19.9593 12.2119 19.7237L10.9413 11.7295L34.0358 8.05909L41.6005 55.6569Z" fill="#4F4F4F"/>
<path d="M23.8588 24.2474L6.09375 27.0708L6.37609 28.8473L24.1411 26.0239L23.8588 24.2474Z" fill="#4F4F4F"/>
<path d="M16.4299 29.0709L6.65918 30.6238L6.94152 32.4003L16.7123 30.8474L16.4299 29.0709Z" fill="#4F4F4F"/>
<path d="M19.9826 28.5063L18.2061 28.7886L18.4884 30.5651L20.2649 30.2828L19.9826 28.5063Z" fill="#4F4F4F"/>
<path d="M9.70619 38.3357L7.92969 38.6181L8.49436 42.1711L10.2709 41.8887L9.70619 38.3357Z" fill="#4F4F4F"/>
<path d="M13.2589 37.771L11.4824 38.0534L12.0471 41.6064L13.8236 41.324L13.2589 37.771Z" fill="#4F4F4F"/>
<path d="M18.588 36.924L16.8115 37.2064L17.3762 40.7594L19.1527 40.477L18.588 36.924Z" fill="#4F4F4F"/>
<path d="M23.0294 36.2182L21.2529 36.5005L21.8176 40.0535L23.5941 39.7712L23.0294 36.2182Z" fill="#4F4F4F"/>
<path d="M26.5822 35.6535L24.8057 35.9359L25.3703 39.4889L27.1468 39.2065L26.5822 35.6535Z" fill="#4F4F4F"/>
<path d="M30.1359 35.0888L28.3594 35.3712L28.924 38.9242L30.7005 38.6419L30.1359 35.0888Z" fill="#4F4F4F"/>
<path d="M36.3536 34.1007L34.5771 34.383L35.1418 37.936L36.9183 37.6537L36.3536 34.1007Z" fill="#4F4F4F"/>
<path d="M19.6591 32.2004L7.22363 34.1768L7.50597 35.9533L19.9415 33.9769L19.6591 32.2004Z" fill="#4F4F4F"/>
<path d="M34.0713 42.6596L27.8535 43.6478L28.1359 45.4243L34.3536 44.4361L34.0713 42.6596Z" fill="#4F4F4F"/>
<path d="M38.1884 45.6479L25.7529 47.6243L26.0353 49.4008L38.4708 47.4244L38.1884 45.6479Z" fill="#4F4F4F"/>
<path d="M10.0473 51.9418L22.4828 49.9654L21.3535 42.8594L8.91797 44.8358L10.0473 51.9418ZM10.9768 46.33L19.8593 44.9183L20.424 48.4713L11.5415 49.883L10.9768 46.33Z" fill="#4F4F4F"/>
<path d="M20.0235 23.0356C21.0776 22.8681 22.0583 22.3918 22.8417 21.6668C23.625 20.9419 24.1758 20.001 24.4245 18.9631C24.6731 17.9251 24.6083 16.8368 24.2384 15.8356C23.8684 14.8345 23.2099 13.9655 22.3461 13.3387C21.4823 12.7118 20.452 12.3551 19.3855 12.3138C18.319 12.2724 17.2642 12.5483 16.3545 13.1064C15.4447 13.6646 14.7209 14.48 14.2746 15.4495C13.8283 16.419 13.6795 17.499 13.847 18.5531C14.073 19.9659 14.8503 21.2314 16.0082 22.0717C17.1662 22.9121 18.6103 23.2588 20.0235 23.0356ZM18.6118 14.1531C19.3145 14.0414 20.0346 14.1406 20.6809 14.4382C21.3273 14.7357 21.8709 15.2183 22.243 15.8247C22.6151 16.4312 22.799 17.1344 22.7714 17.8454C22.7438 18.5564 22.5061 19.2433 22.0881 19.8192C21.6702 20.395 21.0909 20.834 20.4235 21.0807C19.7561 21.3273 19.0305 21.3705 18.3385 21.2047C17.6466 21.039 17.0193 20.6718 16.536 20.1496C16.0527 19.6273 15.7352 18.9735 15.6235 18.2708C15.4737 17.3285 15.7045 16.3653 16.2649 15.593C16.8253 14.8208 17.6695 14.3029 18.6118 14.1531Z" fill="#4F4F4F"/>
<path d="M152.388 28.3154C152.562 28.1011 152.53 27.7862 152.315 27.612L148.823 24.7738C148.609 24.5996 148.294 24.6321 148.12 24.8464C147.946 25.0607 147.978 25.3756 148.193 25.5498L151.297 28.0727L148.774 31.1767C148.6 31.391 148.632 31.7059 148.846 31.8801C149.061 32.0543 149.376 32.0217 149.55 31.8074L152.388 28.3154ZM52.6777 37.4943C62.8458 43.2431 70.2054 45.9912 76.5263 46.7415C82.8626 47.4936 88.1063 46.2321 94.0172 44.0635C105.804 39.7391 120.353 31.7714 152.051 28.4974L151.949 27.5027C120.092 30.7931 105.391 38.8253 93.6728 43.1247C87.831 45.2679 82.7582 46.4742 76.6441 45.7484C70.5146 45.0209 63.29 42.3455 53.1699 36.6238L52.6777 37.4943Z" fill="#4F4F4F"/>
<path d="M186.146 0.144604L151.596 8.53888C151.266 8.61892 151.065 8.94988 151.145 9.2793L159.539 43.8295C159.619 44.1589 159.95 44.3605 160.279 44.2805L194.83 35.8862C195.159 35.8062 195.361 35.4752 195.281 35.1458L186.886 0.595568C186.806 0.26615 186.475 0.0645689 186.146 0.144604ZM193.944 34.8395L160.586 42.9443L152.481 9.58554L185.84 1.48072L193.944 34.8395Z" fill="#4F4F4F"/>
<path d="M156.311 14.9637L158.098 14.5295L158.677 16.9122C158.757 17.2417 159.088 17.4432 159.417 17.3632L166.566 15.6265C166.895 15.5464 167.097 15.2155 167.017 14.886L166.438 12.5033L184.904 8.01667C185.234 7.93664 185.435 7.60567 185.355 7.27625C185.275 6.94683 184.944 6.74525 184.615 6.82529L166.148 11.3119L165.569 8.92911C165.489 8.59969 165.158 8.39811 164.829 8.47815L157.681 10.2149C157.351 10.2949 157.15 10.6259 157.23 10.9553L157.809 13.3381L156.021 13.7723C155.692 13.8523 155.49 14.1833 155.571 14.5127C155.651 14.8421 155.982 15.0437 156.311 14.9637ZM158.566 11.2616L164.523 9.81426L165.681 14.5798L159.724 16.0271L158.566 11.2616Z" fill="#4F4F4F"/>
<path d="M159.061 26.2818L169.188 23.8214L169.767 26.2042C169.847 26.5336 170.178 26.7352 170.507 26.6552L177.655 24.9184C177.985 24.8384 178.186 24.5074 178.106 24.178L177.527 21.7952L187.654 19.3348C187.984 19.2548 188.185 18.9238 188.105 18.5944C188.025 18.265 187.694 18.0634 187.365 18.1435L177.238 20.6039L176.659 18.2211C176.579 17.8917 176.248 17.6901 175.919 17.7701L168.77 19.5069C168.441 19.5869 168.239 19.9179 168.319 20.2473L168.898 22.6301L158.771 25.0905C158.442 25.1705 158.24 25.5015 158.321 25.8309C158.401 26.1603 158.732 26.3619 159.061 26.2818ZM169.655 20.5535L175.612 19.1062L176.77 23.8718L170.813 25.3191L169.655 20.5535Z" fill="#4F4F4F"/>
<path d="M161.811 37.6L180.277 33.1134L180.856 35.4962C180.936 35.8256 181.267 36.0272 181.597 35.9471L188.745 34.2104C189.074 34.1304 189.276 33.7994 189.196 33.47L188.617 31.0872L190.404 30.653C190.734 30.573 190.935 30.242 190.855 29.9126C190.775 29.5832 190.444 29.3816 190.115 29.4616L188.328 29.8958L187.749 27.513C187.669 27.1836 187.338 26.982 187.008 27.0621L179.86 28.7988C179.531 28.8789 179.329 29.2098 179.409 29.5392L179.988 31.922L161.521 36.4086C161.192 36.4886 160.99 36.8196 161.071 37.149C161.151 37.4785 161.482 37.68 161.811 37.6ZM180.745 29.8455L186.702 28.3982L187.86 33.1637L181.903 34.611L180.745 29.8455Z" fill="#4F4F4F"/>
</svg>
