<svg width="225" height="60" viewBox="0 0 225 60" fill="none" xmlns="http://www.w3.org/2000/svg">
<path d="M170.678 40.5165C170.946 40.5843 171.108 40.8563 171.04 41.1239L169.935 45.4861C169.867 45.7538 169.595 45.9159 169.328 45.848C169.06 45.7802 168.898 45.5082 168.966 45.2406L169.948 41.3631L166.071 40.3807C165.803 40.3129 165.641 40.041 165.709 39.7733C165.777 39.5056 166.049 39.3436 166.316 39.4114L170.678 40.5165ZM52.3254 18.5573C80.0273 4.18744 103.853 13.29 123.588 24.125C128.519 26.8325 133.208 29.6554 137.632 32.2462C142.063 34.8407 146.228 37.2027 150.14 39.008C157.987 42.6294 164.653 43.9354 170.3 40.5716L170.812 41.4307C164.708 45.067 157.617 43.5603 149.721 39.9159C145.761 38.0883 141.558 35.7041 137.127 33.1091C132.689 30.5104 128.022 27.7003 123.106 25.0015C103.452 14.2112 80.0278 5.31371 52.7859 19.445L52.3254 18.5573Z" fill="#4F4F4F"/>
<path d="M202.308 32.6023C202.362 32.6023 202.417 32.6023 202.483 32.6023C202.505 32.6023 202.527 32.6023 202.549 32.6023C202.582 32.6023 202.625 32.6023 202.658 32.6023C205.868 32.5475 208.465 31.4191 210.382 29.2608C214.6 24.5062 213.899 16.3553 213.822 15.5775C213.548 9.73827 210.787 6.94463 208.508 5.64094C206.81 4.6659 204.827 4.14004 202.614 4.09622H202.538C202.527 4.09622 202.505 4.09622 202.494 4.09622H202.428C201.212 4.09622 198.824 4.29342 196.534 5.59712C194.234 6.90081 191.429 9.69445 191.155 15.5775C191.078 16.3553 190.377 24.5062 194.595 29.2608C196.501 31.4191 199.098 32.5475 202.308 32.6023ZM194.08 15.8514C194.08 15.8185 194.091 15.7857 194.091 15.7638C194.453 7.90871 200.029 7.06514 202.417 7.06514H202.461C202.483 7.06514 202.516 7.06514 202.549 7.06514C205.507 7.13088 210.535 8.33597 210.875 15.7638C210.875 15.7966 210.875 15.8295 210.886 15.8514C210.897 15.9281 211.664 23.3778 208.18 27.2998C206.799 28.8555 204.959 29.6224 202.538 29.6443C202.516 29.6443 202.505 29.6443 202.483 29.6443C202.461 29.6443 202.45 29.6443 202.428 29.6443C200.018 29.6224 198.167 28.8555 196.797 27.2998C193.324 23.3997 194.069 15.9171 194.08 15.8514Z" fill="#4F4F4F"/>
<path d="M224.997 46.1213C224.997 46.1103 224.997 46.0994 224.997 46.0884C224.997 46.0008 224.986 45.9131 224.986 45.8145C224.92 43.6454 224.778 38.573 220.023 36.9516C219.99 36.9406 219.946 36.9297 219.914 36.9187C214.973 35.6588 210.864 32.8104 210.821 32.7776C210.152 32.3065 209.232 32.4708 208.761 33.1391C208.29 33.8074 208.454 34.7276 209.123 35.1987C209.309 35.3302 213.669 38.3648 219.125 39.7671C221.677 40.6764 221.962 43.4043 222.039 45.9022C222.039 46.0008 222.039 46.0884 222.05 46.1761C222.061 47.1621 221.995 48.6849 221.82 49.5613C220.045 50.5692 213.088 54.053 202.505 54.053C191.966 54.053 184.966 50.5582 183.18 49.5503C183.005 48.6739 182.928 47.1511 182.95 46.1651C182.95 46.0775 182.961 45.9898 182.961 45.8912C183.038 43.3934 183.322 40.6655 185.875 39.7562C191.331 38.3539 195.691 35.3083 195.877 35.1878C196.546 34.7167 196.71 33.7964 196.239 33.1281C195.768 32.4599 194.848 32.2955 194.179 32.7666C194.135 32.7995 190.049 35.6479 185.086 36.9078C185.042 36.9187 185.01 36.9297 184.977 36.9406C180.222 38.573 180.08 43.6454 180.014 45.8036C180.014 45.9022 180.014 45.9898 180.003 46.0775C180.003 46.0884 180.003 46.0994 180.003 46.1103C179.992 46.68 179.981 49.6051 180.562 51.0731C180.671 51.358 180.868 51.599 181.131 51.7633C181.46 51.9824 189.337 57 202.516 57C215.696 57 223.573 51.9715 223.901 51.7633C224.153 51.599 224.362 51.358 224.471 51.0731C225.019 49.6161 225.008 46.691 224.997 46.1213Z" fill="#4F4F4F"/>
<path d="M34.7756 0.65264L9.90454 4.60535C9.66899 4.64284 9.45798 4.77236 9.31791 4.96542L1.84709 15.2596C1.70697 15.4526 1.64925 15.6934 1.68664 15.929L8.03921 55.9002C8.0767 56.1358 8.20622 56.3468 8.39928 56.4868L11.4875 58.7281C11.6627 58.8552 11.8779 58.9149 12.0936 58.8962C12.3092 58.8775 12.5109 58.7816 12.6616 58.6262L15.3217 55.8812L18.7017 57.6662C18.8738 57.7571 19.0707 57.7897 19.2629 57.7592C19.4551 57.7287 19.6322 57.6366 19.7676 57.4968L22.4282 54.7554L25.8039 56.5703C25.9772 56.6634 26.1763 56.697 26.3706 56.6662C26.5648 56.6353 26.7437 56.5416 26.8796 56.3993L29.5341 53.6252L32.9137 55.4076C33.0858 55.4984 33.2827 55.5311 33.4749 55.5005C33.6671 55.47 33.8442 55.3779 33.9796 55.2382L36.6397 52.4931L40.0197 54.2782C40.2112 54.3793 40.4326 54.4079 40.6435 54.3588C40.8543 54.3098 41.0404 54.1863 41.1675 54.0111L43.4088 50.9228C43.5489 50.7298 43.6066 50.4891 43.5692 50.2535L35.805 1.39972C35.7675 1.16414 35.638 0.953086 35.445 0.812981C35.2519 0.672877 35.0111 0.6152 34.7756 0.65264ZM9.49824 7.77901L10.428 13.629L4.57796 14.5588L9.49824 7.77901ZM41.7343 50.1681L40.1699 52.3237L36.8832 50.5875C36.7112 50.4967 36.5142 50.464 36.3221 50.4946C36.1299 50.5251 35.9528 50.6172 35.8173 50.7569L33.1573 53.5019L29.7772 51.7169C29.6052 51.626 29.4082 51.5934 29.2161 51.6239C29.0239 51.6545 28.8468 51.7465 28.7113 51.8863L26.0556 54.6588L22.6766 52.8454C22.5038 52.7533 22.3057 52.7201 22.1124 52.7508C21.9191 52.7816 21.741 52.8745 21.6053 53.0156L18.9453 55.7606L15.5652 53.9756C15.3932 53.8847 15.1962 53.8521 15.004 53.8826C14.8119 53.9132 14.6348 54.0052 14.4993 54.145L11.9129 56.8145L9.75727 55.2501L3.60431 16.5349L11.5986 15.2644C11.8341 15.2269 12.0452 15.0974 12.1853 14.9044C12.3254 14.7113 12.3831 14.4705 12.3456 14.2349L11.0751 6.24068L34.1696 2.57031L41.7343 50.1681Z" fill="#4F4F4F"/>
<path d="M23.9925 18.7586L6.22754 21.582L6.50988 23.3585L24.2749 20.5351L23.9925 18.7586Z" fill="#4F4F4F"/>
<path d="M16.5637 23.5822L6.79297 25.135L7.07531 26.9115L16.8461 25.3587L16.5637 23.5822Z" fill="#4F4F4F"/>
<path d="M20.1163 23.0175L18.3398 23.2998L18.6222 25.0763L20.3987 24.794L20.1163 23.0175Z" fill="#4F4F4F"/>
<path d="M9.83998 32.8469L8.06348 33.1293L8.62815 36.6823L10.4047 36.3999L9.83998 32.8469Z" fill="#4F4F4F"/>
<path d="M13.3927 32.2823L11.6162 32.5646L12.1809 36.1176L13.9574 35.8353L13.3927 32.2823Z" fill="#4F4F4F"/>
<path d="M18.7218 31.4353L16.9453 31.7176L17.51 35.2706L19.2865 34.9883L18.7218 31.4353Z" fill="#4F4F4F"/>
<path d="M23.1632 30.7294L21.3867 31.0117L21.9514 34.5648L23.7279 34.2824L23.1632 30.7294Z" fill="#4F4F4F"/>
<path d="M26.716 30.1647L24.9395 30.4471L25.5041 34.0001L27.2806 33.7177L26.716 30.1647Z" fill="#4F4F4F"/>
<path d="M30.2697 29.6L28.4932 29.8824L29.0578 33.4354L30.8343 33.1531L30.2697 29.6Z" fill="#4F4F4F"/>
<path d="M36.4874 28.6119L34.7109 28.8942L35.2756 32.4472L37.0521 32.1649L36.4874 28.6119Z" fill="#4F4F4F"/>
<path d="M19.7929 26.7117L7.35742 28.688L7.63976 30.4645L20.0753 28.4882L19.7929 26.7117Z" fill="#4F4F4F"/>
<path d="M34.2051 37.1708L27.9873 38.159L28.2696 39.9355L34.4874 38.9473L34.2051 37.1708Z" fill="#4F4F4F"/>
<path d="M38.3222 40.1591L25.8867 42.1355L26.1691 43.912L38.6046 41.9356L38.3222 40.1591Z" fill="#4F4F4F"/>
<path d="M10.1811 46.453L22.6166 44.4767L21.4873 37.3707L9.05176 39.347L10.1811 46.453ZM11.1106 40.8412L19.9931 39.4295L20.5578 42.9825L11.6753 44.3942L11.1106 40.8412Z" fill="#4F4F4F"/>
<path d="M20.1573 17.5468C21.2114 17.3793 22.1921 16.903 22.9755 16.1781C23.7588 15.4532 24.3096 14.5122 24.5582 13.4743C24.8068 12.4364 24.7421 11.348 24.3721 10.3469C24.0022 9.34572 23.3437 8.47676 22.4799 7.84987C21.6161 7.22299 20.5858 6.86632 19.5193 6.82499C18.4528 6.78365 17.398 7.0595 16.4883 7.61765C15.5785 8.17579 14.8547 8.99117 14.4084 9.96067C13.9621 10.9302 13.8133 12.0103 13.9808 13.0643C14.2068 14.4771 14.984 15.7426 16.142 16.583C17.3 17.4233 18.744 17.77 20.1573 17.5468ZM18.7456 8.66433C19.4483 8.55264 20.1684 8.65185 20.8147 8.9494C21.4611 9.24695 22.0046 9.72947 22.3767 10.336C22.7488 10.9424 22.9327 11.6457 22.9052 12.3567C22.8776 13.0677 22.6398 13.7545 22.2219 14.3304C21.804 14.9063 21.2247 15.3453 20.5573 15.5919C19.8898 15.8385 19.1643 15.8817 18.4723 15.716C17.7803 15.5502 17.1531 15.183 16.6698 14.6608C16.1865 14.1385 15.869 13.4847 15.7573 12.782C15.6075 11.8397 15.8382 10.8765 16.3987 10.1043C16.9591 9.33204 17.8033 8.81409 18.7456 8.66433Z" fill="#4F4F4F"/>
</svg>
