<svg width="201" height="66" viewBox="0 0 201 66" fill="none" xmlns="http://www.w3.org/2000/svg">
<path d="M171.314 21.3739C171.488 21.1596 171.456 20.8447 171.242 20.6706L167.749 17.8324C167.535 17.6582 167.22 17.6907 167.046 17.905C166.872 18.1193 166.904 18.4342 167.119 18.6084L170.223 21.1312L167.7 24.2353C167.526 24.4496 167.558 24.7645 167.773 24.9387C167.987 25.1128 168.302 25.0803 168.476 24.866L171.314 21.3739ZM53.2993 43.3914C65.6582 29.5344 75.1977 21.6878 83.5302 17.5785C91.8379 13.4815 98.9761 13.0847 106.583 14.2024C121.804 16.4389 139.123 24.8462 170.978 21.5559L170.875 20.5612C139.175 23.8355 122.244 15.4927 106.728 13.213C98.967 12.0727 91.6154 12.4763 83.0879 16.6817C74.5852 20.8749 64.9441 28.8327 52.553 42.7258L53.2993 43.3914Z" fill="#4F4F4F"/>
<path d="M51.7898 39.5135L55.3484 37.2912C57.1027 36.1926 57.637 33.8813 56.5428 32.1242L40.6523 6.67829C39.5537 4.92392 37.2424 4.38965 35.4853 5.48387L21.49 14.2236C19.8686 15.2431 19.2789 17.3229 20.1234 19.042L15.4093 25.3096C14.1648 26.9649 14.4978 29.3154 16.1523 30.5606L31.2299 41.9012C27.8903 42.5524 25.0502 44.7341 23.5596 47.7924L23.2033 48.5229L17.0238 52.3819C16.6723 52.6014 16.5654 53.0638 16.7849 53.4153L23.9356 64.8659C24.1551 65.2174 24.6176 65.3243 24.969 65.1048L45.9675 51.9917C48.1636 50.6118 49.7246 48.4197 50.3091 45.8927L51.7898 39.5135ZM47.9853 41.8893L44.1791 46.9499C43.4316 47.9426 42.0215 48.1416 41.0286 47.3944L39.9132 46.5571C40.4243 46.4828 40.9149 46.3033 41.3531 46.031L47.9853 41.8893ZM22.2846 15.4959L36.2798 6.75616C37.3336 6.0981 38.722 6.41904 39.38 7.47282L55.2705 32.9187C55.9286 33.9725 55.6076 35.3609 54.5538 36.0189L50.5105 38.5439L50.507 38.5384L50.496 38.553L40.5586 44.7587C40.4445 44.8231 40.3254 44.8773 40.2021 44.9212L42.3909 35.4548C42.8525 33.3459 41.5584 31.2516 39.4668 30.7207C37.3743 30.19 35.2382 31.4137 34.6386 33.4874L33.4766 37.6659L21.5679 18.5961C20.9098 17.5424 21.2308 16.154 22.2846 15.4959ZM24.1932 25.6319L19.6266 22.1959L20.9503 20.439L24.1932 25.6319ZM17.0541 29.3615C16.0608 28.6148 15.8614 27.2041 16.6082 26.2109L18.7288 23.395L26.3972 29.1613L26.401 29.1589L32.9363 39.6241L32.5513 41.0139L17.0541 29.3615ZM24.8107 63.4353L18.4545 53.2569L23.5437 50.0788L29.8998 60.2572L24.8107 63.4353ZM31.1721 59.4627L24.6392 49.0012L24.9077 48.45C26.4178 45.351 29.5101 43.3341 32.9542 43.2011C33.2802 43.1886 33.5607 42.9666 33.6478 42.6522L36.0795 33.8876C36.4448 32.5789 37.7875 31.8012 39.1042 32.1358C40.4212 32.4706 41.23 33.7948 40.9267 35.1186L37.1224 51.5848L38.5836 51.9226L39.4675 48.0989L40.1295 48.5927C41.7842 49.8359 44.1329 49.5036 45.3782 47.8501L49.6246 42.2054L48.8465 45.5558C48.3523 47.6948 47.0319 49.5514 45.1729 50.7194L31.1721 59.4627Z" fill="#4F4F4F"/>
<path d="M34.2892 16.3113C34.8597 17.2248 36.0626 17.5029 36.9761 16.9324L40.0296 15.0255C40.9431 14.4551 41.2211 13.2522 40.6507 12.3387L38.7438 9.28517C38.1734 8.37166 36.9705 8.0936 36.057 8.66407L33.0034 10.5709C32.0899 11.1414 31.8119 12.3443 32.3823 13.2578L34.2892 16.3113ZM33.798 11.8432L34.6886 11.2871L35.4831 12.5593L36.7554 11.7648L35.9609 10.4925L36.8515 9.93636C37.0622 9.80477 37.3399 9.86897 37.4715 10.0797L39.3784 13.1332C39.51 13.3439 39.4458 13.6217 39.235 13.7532L38.3444 14.3094L37.5499 13.0371L36.2776 13.8316L37.0721 15.1039L36.1815 15.6601C35.9708 15.7917 35.6931 15.7275 35.5615 15.5168L33.6546 12.4633C33.523 12.2525 33.5872 11.9748 33.798 11.8432Z" fill="#4F4F4F"/>
<path d="M29.8379 13.4317L31.4269 15.9763L30.1546 16.7709L28.5656 14.2263L29.8379 13.4317Z" fill="#4F4F4F"/>
<path d="M26.0205 15.8153L27.6096 18.3599L26.3373 19.1544L24.7482 16.6098L26.0205 15.8153Z" fill="#4F4F4F"/>
<path d="M33.1719 27.266L34.7609 29.8105L33.4886 30.6051L31.8996 28.0605L33.1719 27.266Z" fill="#4F4F4F"/>
<path d="M32.2217 17.2486L33.8107 19.7932L32.5384 20.5877L30.9494 18.0431L32.2217 17.2486Z" fill="#4F4F4F"/>
<path d="M34.6045 21.0655L36.1935 23.6101L34.9212 24.4046L33.3322 21.86L34.6045 21.0655Z" fill="#4F4F4F"/>
<path d="M36.9883 24.8824L38.5773 27.427L37.305 28.2215L35.716 25.6769L36.9883 24.8824Z" fill="#4F4F4F"/>
<path d="M52.1699 32.202L52.9644 33.4743L51.056 34.6661L50.2615 33.3938L52.1699 32.202Z" fill="#4F4F4F"/>
<path d="M50.5811 29.6575L51.3756 30.9297L49.4671 32.1215L48.6726 30.8492L50.5811 29.6575Z" fill="#4F4F4F"/>
<path d="M48.9922 27.1129L49.7867 28.3852L47.8783 29.5769L47.0838 28.3046L48.9922 27.1129Z" fill="#4F4F4F"/>
<path d="M47.4033 24.5683L48.1978 25.8405L46.2894 27.0323L45.4949 25.7601L47.4033 24.5683Z" fill="#4F4F4F"/>
<path d="M23.0654 52.1456L23.86 53.4179L22.5877 54.2125L21.7931 52.9402L23.0654 52.1456Z" fill="#4F4F4F"/>
<path d="M198.575 18.7504L184.838 11.3113C183.534 10.6054 181.743 11.1484 181.037 12.4516L173 27.384H163.226C161.977 27.384 161 28.3614 161 29.6103V33.5199V53.7738C161 55.0227 161.977 56.0001 163.226 56.0001H194.449C195.698 56.0001 196.675 55.0227 196.675 53.7738V48.1266H197.598C198.087 48.1266 198.467 47.7465 198.467 47.2578V40.7961C198.467 40.3074 198.087 39.9273 197.598 39.9273H196.675V33.5742C196.675 32.5425 195.915 31.6194 194.937 31.4022L199.716 22.5514C200.422 21.1939 199.933 19.5106 198.575 18.7504ZM188.801 15.4381L180.222 31.3479H177.779L186.955 14.4607L188.801 15.4381ZM182.611 13.2661C182.883 12.7774 183.534 12.5602 184.023 12.8317L185.381 13.5919L175.824 31.3479H172.837L182.611 13.2661ZM162.683 29.556C162.683 29.3931 162.9 29.1216 163.172 29.1216H172.023L170.828 31.2936H163.172C163.009 31.2936 162.846 31.2936 162.683 31.3479V29.556ZM194.883 53.7738C194.883 54.0453 194.666 54.2625 194.394 54.2625H163.172C162.9 54.2625 162.683 54.0453 162.683 53.7738V33.5742C162.683 33.3027 162.9 33.0855 163.172 33.0855H171.371H174.846H181.2H193.417H194.34C194.612 33.0855 194.829 33.3027 194.829 33.5742V39.9273H191.516C190.05 39.9273 188.91 41.1219 188.91 42.5337V45.5202C188.91 46.9863 190.105 48.1266 191.516 48.1266H194.883V53.7738ZM196.621 41.6649H196.675V46.389H196.621H191.516C191.028 46.389 190.648 46.0089 190.648 45.5202V42.5337C190.648 42.045 191.028 41.6649 191.516 41.6649H196.621ZM198.141 21.6826L192.928 31.3479H182.177L190.322 16.3069L197.707 20.3251C198.25 20.5423 198.413 21.1939 198.141 21.6826Z" fill="#4F4F4F"/>
<path d="M194.829 20.8679L194.395 20.6507C193.309 20.0535 191.843 20.4878 191.245 21.5738L190.702 22.6055C190.431 23.1485 190.322 23.8001 190.539 24.3974C190.702 24.9947 191.137 25.4834 191.68 25.7549L192.114 25.9721C192.44 26.135 192.82 26.2436 193.2 26.2436C194.069 26.2436 194.829 25.7549 195.263 25.049L195.806 24.0173C196.349 22.877 195.915 21.4652 194.829 20.8679ZM194.232 23.2028L193.689 24.2345C193.526 24.506 193.146 24.6146 192.874 24.4517L192.44 24.1802C192.331 24.1259 192.223 23.963 192.168 23.8544C192.114 23.6915 192.114 23.5286 192.223 23.42L192.766 22.3883C192.874 22.2254 193.091 22.0625 193.309 22.0625C193.417 22.0625 193.472 22.0625 193.58 22.1168L194.015 22.334C194.232 22.5512 194.34 22.877 194.232 23.2028Z" fill="#4F4F4F"/>
</svg>
