<svg width="180" height="55" viewBox="0 0 180 55" fill="none" xmlns="http://www.w3.org/2000/svg">
<path d="M179.133 33.482C179.399 33.4084 179.555 33.1331 179.482 32.8669L178.283 28.5294C178.21 28.2632 177.935 28.1071 177.668 28.1806C177.402 28.2542 177.246 28.5296 177.32 28.7957L178.385 32.6513L174.529 33.7166C174.263 33.7901 174.107 34.0655 174.181 34.3317C174.254 34.5979 174.53 34.754 174.796 34.6805L179.133 33.482ZM4.32652 45.3794C43.1809 12.0047 86.7655 9.00863 120.672 14.3689C137.627 17.0493 152.153 21.8183 162.44 25.9177C167.583 27.9671 171.665 29.8486 174.46 31.2167C175.857 31.9008 176.932 32.4564 177.658 32.8406C178.02 33.0326 178.295 33.1818 178.479 33.2827C178.571 33.3331 178.64 33.3715 178.686 33.3971C178.709 33.4099 178.726 33.4195 178.737 33.4258C178.743 33.429 178.747 33.4314 178.75 33.4329C178.751 33.4337 178.752 33.4342 178.753 33.4346C178.753 33.4349 178.753 33.435 179 33C179.247 32.5651 179.246 32.5648 179.245 32.5643C179.244 32.5638 179.243 32.5631 179.241 32.5622C179.238 32.5604 179.234 32.5577 179.227 32.5543C179.215 32.5474 179.197 32.5372 179.173 32.5238C179.125 32.4971 179.054 32.4576 178.96 32.406C178.772 32.3028 178.493 32.1513 178.126 31.9569C177.392 31.5681 176.307 31.0075 174.9 30.3186C172.085 28.9406 167.98 27.0486 162.81 24.9887C152.473 20.8693 137.874 16.0759 120.829 13.3812C86.736 7.99154 42.821 10.9955 3.67493 44.6208L4.32652 45.3794Z" fill="#8C8C8C"/>
</svg>
