<svg width="25" height="25" viewBox="0 0 25 25" fill="none" xmlns="http://www.w3.org/2000/svg">
<path d="M19.9219 0.78125H8.98438C8.88078 0.781272 8.78144 0.822442 8.7082 0.895703L4.80195 4.80195C4.72869 4.87519 4.68752 4.97453 4.6875 5.07812V22.6562C4.68752 22.7598 4.72869 22.8592 4.80195 22.9324L5.97383 24.1043C6.04031 24.1708 6.12854 24.2111 6.22232 24.2177C6.31611 24.2244 6.40915 24.197 6.48438 24.1406L7.8125 23.1445L9.14062 24.1406C9.20824 24.1913 9.29048 24.2188 9.375 24.2188C9.45952 24.2188 9.54176 24.1913 9.60938 24.1406L10.9375 23.1461L12.2617 24.1547C12.3297 24.2064 12.4128 24.2344 12.4982 24.2344C12.5837 24.2344 12.6668 24.2064 12.7348 24.1547L14.0625 23.1457L15.3906 24.1406C15.4582 24.1913 15.5405 24.2188 15.625 24.2188C15.7095 24.2188 15.7918 24.1913 15.8594 24.1406L17.1875 23.1445L18.5156 24.1406C18.5909 24.197 18.6839 24.2244 18.7777 24.2177C18.8715 24.2111 18.9597 24.1708 19.0262 24.1043L20.198 22.9324C20.2713 22.8592 20.3125 22.7598 20.3125 22.6562V1.17188C20.3125 1.06827 20.2713 0.968918 20.1981 0.895661C20.1248 0.822405 20.0255 0.78125 19.9219 0.78125ZM8.59375 2.11484V4.6875H6.02109L8.59375 2.11484ZM19.5312 22.4945L18.7133 23.3125L17.4219 22.3438C17.3543 22.293 17.272 22.2656 17.1875 22.2656C17.103 22.2656 17.0207 22.293 16.9531 22.3438L15.625 23.3398L14.2969 22.3438C14.2293 22.293 14.147 22.2656 14.0625 22.2656C13.978 22.2656 13.8957 22.293 13.8281 22.3438L12.5 23.352L11.1742 22.3438C11.1064 22.2925 11.0237 22.2647 10.9387 22.2647C10.8537 22.2647 10.7709 22.2925 10.7031 22.3438L9.375 23.3398L8.04688 22.3438C7.97926 22.293 7.89702 22.2656 7.8125 22.2656C7.72798 22.2656 7.64574 22.293 7.57812 22.3438L6.28672 23.3125L5.46875 22.4945V5.46875H8.98438C9.08798 5.46875 9.18733 5.4276 9.26059 5.35434C9.33385 5.28108 9.375 5.18173 9.375 5.07812V1.5625H19.5312V22.4945Z" fill="#157FCC"/>
<path d="M14.0625 7.8125H6.25V8.59375H14.0625V7.8125Z" fill="#157FCC"/>
<path d="M10.5469 9.375H6.25V10.1562H10.5469V9.375Z" fill="#157FCC"/>
<path d="M12.1094 9.375H11.3281V10.1562H12.1094V9.375Z" fill="#157FCC"/>
<path d="M7.03125 12.8906H6.25V14.4531H7.03125V12.8906Z" fill="#157FCC"/>
<path d="M8.59375 12.8906H7.8125V14.4531H8.59375V12.8906Z" fill="#157FCC"/>
<path d="M10.9375 12.8906H10.1562V14.4531H10.9375V12.8906Z" fill="#157FCC"/>
<path d="M12.8906 12.8906H12.1094V14.4531H12.8906V12.8906Z" fill="#157FCC"/>
<path d="M14.4531 12.8906H13.6719V14.4531H14.4531V12.8906Z" fill="#157FCC"/>
<path d="M16.0156 12.8906H15.2344V14.4531H16.0156V12.8906Z" fill="#157FCC"/>
<path d="M18.75 12.8906H17.9688V14.4531H18.75V12.8906Z" fill="#157FCC"/>
<path d="M11.7188 10.9375H6.25V11.7188H11.7188V10.9375Z" fill="#157FCC"/>
<path d="M17.1875 16.4062H14.4531V17.1875H17.1875V16.4062Z" fill="#157FCC"/>
<path d="M18.75 17.9688H13.2812V18.75H18.75V17.9688Z" fill="#157FCC"/>
<path d="M6.25 18.75H11.7188V15.625H6.25V18.75ZM7.03125 16.4062H10.9375V17.9688H7.03125V16.4062Z" fill="#157FCC"/>
<path d="M12.5 7.03125C12.9635 7.03125 13.4167 6.89379 13.8021 6.63625C14.1875 6.37872 14.4879 6.01268 14.6653 5.58441C14.8427 5.15615 14.8891 4.6849 14.7987 4.23026C14.7083 3.77561 14.4851 3.358 14.1573 3.03022C13.8295 2.70244 13.4119 2.47922 12.9572 2.38879C12.5026 2.29835 12.0313 2.34477 11.6031 2.52216C11.1748 2.69955 10.8088 2.99995 10.5512 3.38538C10.2937 3.77081 10.1563 4.22395 10.1562 4.6875C10.1569 5.30891 10.404 5.90469 10.8434 6.34409C11.2828 6.7835 11.8786 7.03063 12.5 7.03125ZM12.5 3.125C12.809 3.125 13.1111 3.21664 13.3681 3.38833C13.625 3.56002 13.8253 3.80405 13.9436 4.08956C14.0618 4.37507 14.0928 4.68923 14.0325 4.99233C13.9722 5.29542 13.8234 5.57383 13.6048 5.79235C13.3863 6.01087 13.1079 6.15968 12.8048 6.21997C12.5017 6.28026 12.1876 6.24932 11.9021 6.13106C11.6165 6.0128 11.3725 5.81253 11.2008 5.55558C11.0291 5.29862 10.9375 4.99653 10.9375 4.6875C10.9375 4.2731 11.1021 3.87567 11.3951 3.58265C11.6882 3.28962 12.0856 3.125 12.5 3.125Z" fill="#157FCC"/>
</svg>
