<svg width="12" height="12" viewBox="0 0 12 12" fill="none" xmlns="http://www.w3.org/2000/svg">
<g clip-path="url(#clip0)">
<path d="M5.42788 5.95985L0.116375 11.2713C-0.0311875 11.4189 -0.0311875 11.658 0.116375 11.8055C0.190062 11.8794 0.286813 11.9162 0.383375 11.9162C0.480125 11.9162 0.576688 11.8794 0.650375 11.8055L6.00181 6.4541L11.3532 11.8055C11.4271 11.8794 11.5237 11.9162 11.6202 11.9162C11.7168 11.9162 11.8136 11.8794 11.8872 11.8055C12.0348 11.658 12.0348 11.4189 11.8872 11.2713L6.57594 5.95985L11.8908 0.644597C12.0384 0.497034 12.0384 0.257972 11.8908 0.110409C11.7432 -0.0369658 11.5042 -0.0369658 11.3568 0.110409L6.002 5.4656L0.646625 0.110597C0.499063 -0.0367783 0.260188 -0.0367783 0.112625 0.110597C-0.0349375 0.258159 -0.0349375 0.497222 0.112625 0.644784L5.42788 5.95985Z" fill="#CC4115"/>
</g>
<defs>
<clipPath id="clip0">
<rect width="12" height="12" fill="white"/>
</clipPath>
</defs>
</svg>
