<svg width="16" height="20" viewBox="0 0 16 20" fill="none" xmlns="http://www.w3.org/2000/svg">
<path d="M14.4451 2.35504H11.7747V0.61977C11.7747 0.270485 11.493 6.10352e-05 11.1437 6.10352e-05C11.1098 6.10352e-05 11.0872 0.011375 11.0762 0.0226631C11.0649 0.011375 11.0423 6.10352e-05 11.031 6.10352e-05H4.75492H4.70998H4.66477C4.31551 6.10352e-05 4.04509 0.270485 4.04509 0.61977V2.35506H1.36343C0.597107 2.35506 0 2.95217 0 3.71849V4.71006V5.94946H1.18313V18.6479C1.18313 19.4143 1.76895 20.0001 2.53527 20.0001H13.2732C14.0396 20.0001 14.6367 19.4143 14.6367 18.6479V5.94946H15.8085V4.71006V3.71849C15.8085 2.95217 15.2112 2.35504 14.4451 2.35504ZM5.28448 1.23945H10.524V2.35504H5.28448V1.23945ZM13.386 18.6479C13.386 18.727 13.3521 18.7606 13.2732 18.7606H2.53527C2.45644 18.7606 2.42255 18.727 2.42255 18.6479V5.94943H13.386V18.6479ZM14.5578 4.71004H1.25068V3.71847C1.25068 3.63961 1.28457 3.59443 1.36341 3.59443H14.4451C14.5239 3.59443 14.5578 3.63961 14.5578 3.71847V4.71004Z" fill="#828282"/>
<path d="M11.4245 7.40295H10.1738V17.6563H11.4245V7.40295Z" fill="#828282"/>
<path d="M8.5417 7.40295H7.29102V17.6563H8.5417V7.40295Z" fill="#828282"/>
<path d="M5.65693 7.40295H4.40625V17.6563H5.65693V7.40295Z" fill="#828282"/>
</svg>
