<svg width="88" height="88" viewBox="0 0 88 88" fill="none" xmlns="http://www.w3.org/2000/svg">
<path d="M62.6713 65.3558C63.4163 64.5848 63.4163 63.3433 62.6713 62.6002C61.9004 61.8292 60.6589 61.8292 59.9157 62.6002L45.943 76.5468V30.4631C45.943 29.3883 45.0887 28.5062 44.0139 28.5062C42.9391 28.5062 42.057 29.3883 42.057 30.4631V76.5451L28.1121 62.5984C27.3411 61.8275 26.1274 61.8275 25.3564 62.5984C24.6115 63.3433 24.6115 64.5831 25.3564 65.3541L42.6369 82.6346C43.3819 83.3795 44.6216 83.3795 45.3926 82.6346L62.6713 65.3558ZM38.1154 51.4925C39.1624 51.4925 40.0445 52.3468 40.0445 53.4216C40.0445 54.4964 39.1624 55.3785 38.1154 55.3785H19.5118C14.1376 55.3785 9.26014 53.2011 5.73181 49.6467C2.17743 46.1184 0 41.2409 0 35.8668C0 30.4926 2.17743 25.6134 5.73181 22.0868C9.26014 18.5585 14.1376 16.3533 19.5118 16.3533C20.8071 16.3533 22.1024 16.4904 23.37 16.7665C24.0871 16.9037 24.7747 17.0704 25.4363 17.2909C27.5026 13.7348 30.4527 10.7586 33.9533 8.5812C37.8115 6.18326 42.3591 4.80457 47.2366 4.80457C53.9061 4.80457 59.9973 7.42303 64.5171 11.6668C68.5959 15.4972 71.3793 20.6248 72.2336 26.4121C72.6469 26.3566 73.0879 26.3566 73.5012 26.3566C77.4966 26.3566 81.1361 27.9818 83.7528 30.6003C86.3991 33.2188 87.9965 36.8565 87.9965 40.8537C87.9965 44.8769 86.3973 48.4885 83.7528 51.1331C81.1343 53.7515 77.4966 55.3768 73.5012 55.3768H49.9107C48.8358 55.3768 47.9815 54.4947 47.9815 53.4199C47.9815 52.3451 48.8358 51.4908 49.9107 51.4908H73.5029C76.4235 51.4908 79.0975 50.3048 80.9989 48.3757C82.928 46.4466 84.114 43.8003 84.114 40.8519C84.114 37.9313 82.928 35.2573 80.9989 33.3559C79.0975 31.4268 76.4235 30.2409 73.5029 30.2409C73.0619 30.2409 72.6208 30.2687 72.2354 30.3242C71.8221 30.352 71.4088 30.4336 71.0494 30.517C70.9122 30.5447 70.7733 30.5725 70.6362 30.6003C69.5613 30.6559 68.6515 29.8293 68.5699 28.7545C68.2399 23.1599 65.7309 18.1157 61.8726 14.5057C58.0421 10.8958 52.8886 8.6906 47.2384 8.6906C43.104 8.6906 39.2458 9.87655 35.9935 11.8873C32.6041 13.9536 29.8745 16.9593 28.0843 20.5414C27.6155 21.4513 26.5406 21.8645 25.577 21.4791C24.6393 21.0658 23.6478 20.7619 22.6286 20.5414C21.6371 20.3487 20.6161 20.2376 19.5135 20.2376C15.1864 20.2376 11.3004 22.0017 8.46141 24.8129C5.6502 27.6519 3.88603 31.5657 3.88603 35.865C3.88603 40.1921 5.6502 44.0781 8.46141 46.9171C11.3004 49.7283 15.1864 51.4925 19.5135 51.4925H38.1154Z" fill="#A1A1A1"/>
</svg>
