<svg width="13" height="13" viewBox="0 0 13 13" fill="none" xmlns="http://www.w3.org/2000/svg">
<g clip-path="url(#clip0)">
<path d="M11.9985 8.1665C11.8197 8.1665 11.6747 8.31144 11.6747 8.49027V11.365C11.6741 11.9012 11.2397 12.3358 10.7034 12.3363H1.61884C1.0826 12.3358 0.648167 11.9012 0.647535 11.365V2.92792C0.648167 2.39181 1.0826 1.95725 1.61884 1.95662H4.49354C4.67237 1.95662 4.8173 1.81168 4.8173 1.63285C4.8173 1.45414 4.67237 1.30908 4.49354 1.30908H1.61884C0.725188 1.31009 0.00101177 2.03427 0 2.92792V11.3651C0.00101177 12.2587 0.725188 12.9829 1.61884 12.9839H10.7034C11.5971 12.9829 12.3212 12.2587 12.3223 11.3651V8.49027C12.3223 8.31144 12.1773 8.1665 11.9985 8.1665Z" fill="#4F4F4F"/>
<path d="M12.1941 0.476063C11.6251 -0.0929326 10.7026 -0.0929326 10.1336 0.476063L4.35743 6.25228C4.31784 6.29186 4.28926 6.34093 4.27433 6.39481L3.51474 9.13709C3.48351 9.24953 3.51525 9.36993 3.59771 9.45251C3.6803 9.53497 3.8007 9.56672 3.91313 9.53561L6.65542 8.77589C6.70929 8.76097 6.75836 8.73238 6.79795 8.6928L12.574 2.91646C13.1421 2.34708 13.1421 1.42536 12.574 0.855984L12.1941 0.476063ZM5.06288 6.46272L9.79027 1.73521L11.3149 3.25983L6.58737 7.98734L5.06288 6.46272ZM4.75834 7.07383L5.97639 8.29201L4.29153 8.75882L4.75834 7.07383ZM12.1162 2.45863L11.7728 2.802L10.2481 1.27726L10.5916 0.933891C10.9076 0.617838 11.4201 0.617838 11.7362 0.933891L12.1162 1.31381C12.4318 1.63024 12.4318 2.14233 12.1162 2.45863Z" fill="#4F4F4F"/>
</g>
<defs>
<clipPath id="clip0">
<rect width="13" height="13" fill="white"/>
</clipPath>
</defs>
</svg>
