<svg width="211" height="60" viewBox="0 0 211 60" fill="none" xmlns="http://www.w3.org/2000/svg">
<path d="M198.204 14.2888C198.889 14.3913 199.528 13.9187 199.631 13.2332L200.217 9.31654C200.441 7.81971 199.406 6.41974 197.91 6.1959L171.649 2.26747C171.32 2.21823 170.985 2.30188 170.717 2.49977L158.896 11.2445C158.628 11.4424 158.45 11.7386 158.401 12.0678L152.838 49.2564C152.614 50.7533 153.649 52.1534 155.146 52.3773L190.216 57.6236C191.712 57.8475 193.112 56.8116 193.336 55.3148L196.171 36.3625C196.273 35.6771 195.801 35.0381 195.115 34.9355C194.43 34.833 193.791 35.3056 193.688 35.9911L190.853 54.9434C190.834 55.0714 190.715 55.1601 190.588 55.1411L155.518 49.8947C155.39 49.8756 155.301 49.7559 155.321 49.6279L160.698 13.6807L168.268 14.8131C169.764 15.0369 171.163 14.0016 171.387 12.5053L172.52 4.93579L197.538 8.67849C197.665 8.69753 197.753 8.81717 197.734 8.94513L197.148 12.8618C197.046 13.5473 197.518 14.1862 198.204 14.2888ZM168.905 12.1338C168.886 12.2613 168.766 12.3494 168.639 12.3304L162.825 11.4607L169.774 6.32017L168.905 12.1338Z" fill="#4F4F4F"/>
<path d="M207.215 19.3549L205.973 17.676C204.581 15.7934 201.916 15.3949 200.033 16.7874L186.705 26.6467L166.596 23.6384C165.91 23.5358 165.271 24.0084 165.169 24.694C165.066 25.3795 165.539 26.0184 166.224 26.1209L183.851 28.7579L175.263 35.1112L165.107 33.5919C164.421 33.4894 163.782 33.962 163.68 34.6475C163.577 35.3331 164.05 35.972 164.735 36.0745L172.408 37.2224L172.385 37.2394C172.211 37.3682 172.074 37.5398 171.986 37.7375L169.035 44.356L163.618 43.5455C162.932 43.443 162.293 43.9156 162.191 44.6011C162.088 45.2866 162.561 45.9255 163.246 46.0281L169.608 46.9797C169.608 46.9798 169.884 46.9897 169.926 46.9852C169.933 46.9845 178.085 45.9834 178.085 45.9834C178.3 45.957 178.505 45.8755 178.679 45.7467L206.327 25.2946C208.209 23.9021 208.608 21.2375 207.215 19.3549ZM171.843 44.2218L173.402 40.7246L175.644 43.7546L171.843 44.2218ZM178.195 42.9825L174.887 38.5113L197.71 21.6285L201.018 26.0997L178.195 42.9825ZM204.834 23.2766L203.036 24.6066L199.728 20.1354L201.526 18.8053C202.296 18.2357 203.386 18.3988 203.955 19.1686L205.197 20.8477C205.767 21.6176 205.604 22.7072 204.834 23.2766Z" fill="#4F4F4F"/>
<path d="M21.9374 15.2944L19.8679 15.5134L18.7207 4.67176C18.6564 4.06431 18.1119 3.62399 17.5044 3.68826L6.50563 4.85212C5.89818 4.9164 5.45786 5.46094 5.52213 6.06839L6.66937 16.9101L4.59992 17.129C2.76039 17.3237 1.42198 18.9786 1.61664 20.8183L5.1189 53.9156C5.31355 55.7552 6.9686 57.0935 8.80823 56.8988L26.1457 55.0642C27.9852 54.8695 29.3235 53.2146 29.1288 51.375L25.6266 18.2777C25.4319 16.4381 23.777 15.0998 21.9374 15.2944ZM19.4 22.1274L20.1802 29.5008L9.29151 30.653L8.51129 23.2796L19.4 22.1274ZM16.6373 6.00441L18.1178 19.9953L9.31874 20.9263L7.83828 6.9355L16.6373 6.00441ZM26.9291 51.6077C26.9954 52.2344 26.5395 52.7981 25.9129 52.8644L8.57546 54.699C7.94884 54.7653 7.38497 54.3095 7.31866 53.6829L3.8164 20.5855C3.75009 19.9589 4.20597 19.3951 4.83269 19.3288L6.90214 19.1098L7.11927 21.1618C6.84909 21.2041 6.60311 21.344 6.43039 21.5576C6.24596 21.7857 6.15972 22.0778 6.19059 22.3695L7.20813 31.9856C7.27241 32.593 7.81695 33.0333 8.4244 32.9691L21.5129 31.5841C22.1203 31.5198 22.5606 30.9753 22.4963 30.3678L21.4788 20.7517C21.4165 20.1628 20.9026 19.7325 20.3178 19.7651L20.1007 17.7132L22.1701 17.4942C22.7968 17.4279 23.3605 17.8838 23.4268 18.5105L26.9291 51.6077Z" fill="#4F4F4F"/>
<path d="M13.6846 35.8415L8.75613 36.363C8.14868 36.4273 7.70836 36.9718 7.77264 37.5792C7.83691 38.1867 8.38145 38.627 8.9889 38.5627L13.9174 38.0412C14.5249 37.9769 14.9652 37.4324 14.9009 36.825C14.8366 36.2175 14.2921 35.7772 13.6846 35.8415Z" fill="#4F4F4F"/>
<path d="M21.8984 34.9723L16.97 35.4938C16.3626 35.5581 15.9222 36.1026 15.9865 36.71C16.0508 37.3175 16.5953 37.7578 17.2028 37.6935L22.1312 37.172C22.7386 37.1078 23.1789 36.5632 23.1147 35.9558C23.0504 35.3483 22.5057 34.908 21.8984 34.9723Z" fill="#4F4F4F"/>
<path d="M14.2881 41.5444L9.35964 42.0659C8.7522 42.1302 8.31187 42.6747 8.37615 43.2821C8.44043 43.8896 8.98497 44.3299 9.59242 44.2656L14.5209 43.7441C15.1284 43.6798 15.5687 43.1353 15.5044 42.5279C15.4401 41.9204 14.8956 41.4801 14.2881 41.5444Z" fill="#4F4F4F"/>
<path d="M22.5019 40.6752L17.5735 41.1967C16.9661 41.2609 16.5257 41.8055 16.59 42.4129C16.6543 43.0204 17.1988 43.4607 17.8063 43.3964L22.7347 42.8749C23.3421 42.8106 23.7825 42.2661 23.7182 41.6587C23.6539 41.0512 23.1093 40.6109 22.5019 40.6752Z" fill="#4F4F4F"/>
<path d="M14.9034 47.3583L9.97488 47.8799C9.36743 47.9441 8.92711 48.4887 8.99139 49.0961C9.05566 49.7036 9.6002 50.1439 10.2077 50.0796L15.1362 49.5581C15.7436 49.4938 16.1839 48.9493 16.1196 48.3418C16.0554 47.7344 15.5108 47.2941 14.9034 47.3583Z" fill="#4F4F4F"/>
<path d="M23.1171 46.4892L18.1887 47.0107C17.5813 47.0749 17.141 47.6195 17.2053 48.2269C17.2695 48.8344 17.8141 49.2747 18.4215 49.2104L23.3499 48.6889C23.9574 48.6246 24.3977 48.0801 24.3334 47.4726C24.2691 46.8652 23.7245 46.4249 23.1171 46.4892Z" fill="#4F4F4F"/>
<path d="M149.943 28.7509C150.117 28.5366 150.085 28.2217 149.87 28.0475L146.378 25.2093C146.164 25.0351 145.849 25.0677 145.675 25.282C145.501 25.4962 145.533 25.8112 145.748 25.9853L148.852 28.5082L146.329 31.6122C146.155 31.8265 146.187 32.1414 146.402 32.3156C146.616 32.4898 146.931 32.4572 147.105 32.243L149.943 28.7509ZM31.9282 50.7683C44.2871 36.9114 53.8266 29.0648 62.1591 24.9555C70.4668 20.8585 77.605 20.4617 85.2119 21.5794C100.433 23.8158 117.752 32.2231 149.606 28.9329L149.504 27.9382C117.804 31.2124 100.872 22.8697 85.3572 20.59C77.5959 19.4496 70.2443 19.8532 61.7168 24.0586C53.2141 28.2518 43.573 36.2097 31.1819 50.1027L31.9282 50.7683Z" fill="#4F4F4F"/>
</svg>
