<svg width="210" height="66" viewBox="0 0 210 66" fill="none" xmlns="http://www.w3.org/2000/svg">
<path d="M6.81862 66.0003H3.26689C1.46534 66.0003 0 64.3513 0 62.3251V56.2306C0 54.2039 1.46534 52.5554 3.26689 52.5554H6.81862C8.62017 52.5554 10.0855 54.2039 10.0855 56.2306V62.3251C10.0855 64.3513 8.62017 66.0003 6.81862 66.0003ZM3.26689 54.3008C2.32107 54.3008 1.55146 55.1666 1.55146 56.2306V62.3251C1.55146 63.3891 2.32107 64.2544 3.26689 64.2544H6.81862C7.76443 64.2544 8.53365 63.3891 8.53365 62.3251V56.2306C8.53365 55.1666 7.76443 54.3008 6.81862 54.3008H3.26689Z" fill="#4F4F4F"/>
<path d="M19.5696 65.9997H16.0179C14.2163 65.9997 12.751 64.3508 12.751 62.3245V49.4379C12.751 47.4116 14.2163 45.7627 16.0179 45.7627H19.5696C21.3711 45.7627 22.8365 47.4116 22.8365 49.4379V62.3245C22.8365 64.3508 21.3711 65.9997 19.5696 65.9997ZM16.0179 47.5085C15.072 47.5085 14.3024 48.3739 14.3024 49.4379V62.3245C14.3024 63.3885 15.072 64.2539 16.0179 64.2539H19.5696C20.5154 64.2539 21.2846 63.3885 21.2846 62.3245V49.4379C21.2846 48.3739 20.5154 47.5085 19.5696 47.5085H16.0179Z" fill="#4F4F4F"/>
<path d="M32.3225 66.0001H28.7708C26.9692 66.0001 25.5039 64.3512 25.5039 62.3249V41.1211C25.5039 39.0943 26.9692 37.4458 28.7708 37.4458H32.3225C34.1237 37.4458 35.5894 39.0943 35.5894 41.1211V62.3249C35.5894 64.3512 34.1237 66.0001 32.3225 66.0001ZM28.7708 39.1917C27.825 39.1917 27.0558 40.057 27.0558 41.1211V62.3249C27.0558 63.3889 27.825 64.2543 28.7708 64.2543H32.3225C33.2683 64.2543 34.0375 63.3889 34.0375 62.3249V41.1211C34.0375 40.057 33.2683 39.1917 32.3225 39.1917H28.7708Z" fill="#4F4F4F"/>
<path d="M45.0735 65.9998H41.5218C39.7202 65.9998 38.2549 64.3509 38.2549 62.3246V26.5937C38.2549 24.5674 39.7202 22.9184 41.5218 22.9184H45.0735C46.8751 22.9184 48.3404 24.5674 48.3404 26.5937V52.1238C48.3404 52.606 47.9932 52.9967 47.5645 52.9967C47.1362 52.9967 46.789 52.606 46.789 52.1238V26.5937C46.789 25.5296 46.0194 24.6643 45.0735 24.6643H41.5218C40.576 24.6643 39.8067 25.5296 39.8067 26.5937V62.3246C39.8067 63.3886 40.576 64.254 41.5218 64.254H45.0735C46.0194 64.254 46.789 63.3886 46.789 62.3246V55.6155C46.789 55.1332 47.1362 54.7426 47.5645 54.7426C47.9932 54.7426 48.3404 55.1332 48.3404 55.6155V62.3246C48.3404 64.3509 46.8751 65.9998 45.0735 65.9998Z" fill="#4F4F4F"/>
<path d="M6.03397 39.8621C5.77164 39.8621 5.52235 39.7118 5.37854 39.4558C5.20747 39.1514 5.21972 38.7598 5.41015 38.47L10.7002 30.42L5.11621 25.9083C4.85862 25.6998 4.7397 25.3363 4.81556 24.9896C4.89181 24.6433 5.14782 24.3838 5.4619 24.3349C5.48916 24.3304 8.24403 23.8931 12.0881 22.7833C12.5037 22.6633 12.9261 22.9446 13.0324 23.4117C13.1386 23.8784 12.8889 24.354 12.4737 24.474C10.445 25.0598 8.73195 25.4594 7.5325 25.7114L12.2446 29.5186C12.4133 29.6551 12.5263 29.8613 12.5583 30.0924C12.5907 30.3231 12.5393 30.5587 12.4156 30.7462L7.89794 37.6207C11.2636 36.654 14.589 35.1375 17.8096 33.0996C20.9094 31.1382 23.9203 28.6915 26.7589 25.8274C31.6061 20.9357 34.3013 16.4657 34.3278 16.4208C34.4573 16.2044 34.6659 16.0644 34.8967 16.0391C35.1282 16.0137 35.3565 16.1062 35.5205 16.2906L36.6054 17.5111L38.0794 9.72817L31.196 11.2518L32.4946 12.7123C32.6475 12.8843 32.7297 13.1203 32.7214 13.3634C32.7127 13.6065 32.6147 13.835 32.45 13.9928C28.466 17.8244 22.8702 20.9957 15.8176 23.4184C15.4083 23.5593 14.9742 23.2997 14.8493 22.8384C14.7241 22.3775 14.9548 21.8895 15.3645 21.749C21.7383 19.5592 27.0505 16.6369 30.7942 13.2683L29.0697 11.3282C28.8674 11.1002 28.7927 10.7651 28.8765 10.4566C28.9599 10.1486 29.1874 9.91707 29.4687 9.85485L38.9336 7.76011C39.1896 7.70366 39.4535 7.79522 39.6364 8.00412C39.8193 8.21301 39.8968 8.51169 39.8422 8.79837L37.825 19.4463C37.7661 19.7592 37.5591 20.0103 37.2865 20.101C37.0139 20.1921 36.7188 20.1076 36.5177 19.8814L35.0705 18.2534C34.0425 19.8143 31.5859 23.2949 27.8292 27.0923C24.9044 30.0484 21.7975 32.5765 18.595 34.6055C14.5814 37.1491 10.4059 38.9118 6.18371 39.8456C6.13393 39.8563 6.08375 39.8621 6.03397 39.8621Z" fill="#4F4F4F"/>
<path d="M200.479 46.4419C197.899 46.6401 195.692 48.0465 194.366 50.0601L181.511 44.1217C181.737 43.2704 181.826 42.3639 181.755 41.4415C181.684 40.5099 181.458 39.637 181.095 38.8214L192.883 31.0001C194.493 32.7977 196.898 33.8594 199.488 33.6605C203.904 33.3214 207.234 29.4484 206.894 25.0231C206.554 20.5978 202.682 17.2778 198.257 17.6176C193.831 17.9574 190.511 21.8297 190.851 26.255C190.923 27.1866 191.15 28.0689 191.511 28.8751L179.732 36.6957C178.122 34.8888 175.717 33.8364 173.127 34.0353C168.711 34.3744 165.382 38.2474 165.722 42.6727C166.062 47.098 169.943 50.4173 174.369 50.0775C176.959 49.8786 179.174 48.4621 180.499 46.4299L193.344 52.369C193.11 53.2304 193.011 54.1469 193.083 55.0786C193.422 59.4946 197.295 62.8239 201.72 62.4841C206.146 62.1443 209.466 58.272 209.126 53.8467C208.786 49.4214 204.905 46.1021 200.479 46.4419ZM198.46 20.1416C201.497 19.9084 204.155 22.1877 204.388 25.2249C204.622 28.262 202.342 30.9204 199.305 31.1537C196.268 31.3869 193.61 29.1076 193.376 26.0704C193.143 23.0333 195.432 20.3741 198.46 20.1416ZM174.175 47.562C171.138 47.7953 168.48 45.516 168.247 42.4788C168.013 39.4417 170.293 36.7832 173.33 36.55C176.367 36.3168 179.025 38.5961 179.259 41.6332C179.492 44.6704 177.203 47.3295 174.175 47.562ZM201.517 59.9601C198.48 60.1933 195.822 57.914 195.588 54.8768C195.355 51.8397 197.634 49.1813 200.672 48.948C203.709 48.7148 206.367 50.9941 206.6 54.0313C206.834 57.0684 204.554 59.7268 201.517 59.9601Z" fill="#4F4F4F"/>
<path d="M173.123 26.4848C173.391 26.4169 173.553 26.145 173.485 25.8773L172.38 21.5151C172.312 21.2474 172.04 21.0854 171.772 21.1532C171.505 21.221 171.343 21.493 171.41 21.7607L172.393 25.6382L168.515 26.6205C168.247 26.6883 168.085 26.9603 168.153 27.228C168.221 27.4956 168.493 27.6577 168.761 27.5899L173.123 26.4848ZM55.3733 48.3329C80.0471 20.6682 103.546 11.7475 123.758 11.4375C143.993 11.1271 161.021 19.4454 172.744 26.4296L173.256 25.5705C161.479 18.5547 144.257 10.1229 123.742 10.4376C103.204 10.7526 79.4531 19.8318 54.627 47.6673L55.3733 48.3329Z" fill="#4F4F4F"/>
</svg>
