<svg width="28" height="26" viewBox="0 0 28 26" fill="none" xmlns="http://www.w3.org/2000/svg">
<path d="M27.5194 13C27.5194 5.82043 21.56 0 14.209 0C6.85802 0 0.898621 5.82043 0.898621 13C0.898621 20.1795 6.85802 26 14.209 26C21.56 26 27.5194 20.1795 27.5194 13ZM2.10865 13C2.10865 6.47281 7.52598 1.18181 14.209 1.18181C20.892 1.18181 26.3094 6.47281 26.3094 13C26.3094 19.5272 20.892 24.8182 14.209 24.8182C7.52598 24.8182 2.10865 19.5272 2.10865 13Z" fill="white"/>
<path d="M14.6946 21V13.4899H17.1374L17.5234 11.0012H14.6946V9.75326C14.6946 9.10387 14.9045 8.48403 15.8233 8.48403H17.6598V6H15.0526C12.8605 6 12.2623 7.46436 12.2623 9.49422V11H10.7581V13.4899H12.2623V21H14.6946Z" fill="white"/>
</svg>
