<svg width="39" height="40" viewBox="0 0 39 40" fill="none" xmlns="http://www.w3.org/2000/svg">
<path d="M37.7213 0H1.02411C0.460849 0 0 0.460849 0 1.02411C0 1.58737 0.460849 2.04822 1.02411 2.04822H3.23448V38.9503C3.23448 39.3258 3.4393 39.6757 3.77213 39.8549C4.10497 40.0341 4.50608 40.0171 4.82185 39.8037L9.26819 36.8423L13.7316 39.8122C14.073 40.0427 14.5253 40.0427 14.8666 39.8122L19.313 36.8509L23.7764 39.8208C24.1178 40.0512 24.5701 40.0512 24.9114 39.8208L29.3578 36.8594L33.8212 39.8293C33.9919 39.9403 34.1882 40 34.3845 40C34.5466 40 34.7173 39.9573 34.8709 39.8805C35.2037 39.7013 35.4086 39.3514 35.4086 38.9759L35.3915 2.07382H37.7213C38.2846 2.07382 38.7455 1.61297 38.7455 1.04971C38.7455 0.486452 38.2846 0 37.7213 0ZM33.3689 37.0386L29.9296 34.7514C29.5882 34.521 29.1359 34.521 28.7945 34.7514L24.3482 37.7214L19.8848 34.7514C19.5434 34.521 19.0911 34.521 18.7497 34.7514L14.3034 37.7128L9.83998 34.7514C9.49861 34.521 9.0463 34.521 8.70493 34.7514L5.2827 37.0301V2.03968H33.3603L33.3689 37.0386Z" fill="white"/>
<path d="M9.99347 16.3518H20.721C21.2843 16.3518 21.7451 15.8909 21.7451 15.3277C21.7451 14.7644 21.2843 14.3036 20.721 14.3036H9.99347C9.43021 14.3036 8.96936 14.7644 8.96936 15.3277C8.96936 15.8909 9.42168 16.3518 9.99347 16.3518Z" fill="white"/>
<path d="M9.99347 19.9105H18.0327C18.596 19.9105 19.0568 19.4497 19.0568 18.8864C19.0568 18.3232 18.596 17.8623 18.0327 17.8623H9.99347C9.43021 17.8623 8.96936 18.3232 8.96936 18.8864C8.96936 19.4497 9.42168 19.9105 9.99347 19.9105Z" fill="white"/>
<path d="M26.0805 16.3518H28.7603C29.3235 16.3518 29.7844 15.8909 29.7844 15.3277C29.7844 14.7644 29.3235 14.3036 28.7603 14.3036H26.0805C25.5172 14.3036 25.0564 14.7644 25.0564 15.3277C25.0564 15.8909 25.5087 16.3518 26.0805 16.3518Z" fill="white"/>
<path d="M26.0805 19.9105H28.7603C29.3235 19.9105 29.7844 19.4497 29.7844 18.8864C29.7844 18.3232 29.3235 17.8623 28.7603 17.8623H26.0805C25.5172 17.8623 25.0564 18.3232 25.0564 18.8864C25.0564 19.4497 25.5087 19.9105 26.0805 19.9105Z" fill="white"/>
<path d="M9.99347 8.13318H20.721C21.2843 8.13318 21.7451 7.67233 21.7451 7.10907C21.7451 6.54581 21.2843 6.08496 20.721 6.08496H9.99347C9.43021 6.08496 8.96936 6.54581 8.96936 7.10907C8.96936 7.67233 9.42168 8.13318 9.99347 8.13318Z" fill="white"/>
<path d="M9.99347 11.6831H18.0327C18.596 11.6831 19.0568 11.2223 19.0568 10.659C19.0568 10.0958 18.596 9.63492 18.0327 9.63492H9.99347C9.43021 9.63492 8.96936 10.0958 8.96936 10.659C8.96936 11.2223 9.42168 11.6831 9.99347 11.6831Z" fill="white"/>
<path d="M26.0805 8.13318H28.7603C29.3235 8.13318 29.7844 7.67233 29.7844 7.10907C29.7844 6.54581 29.3235 6.08496 28.7603 6.08496H26.0805C25.5172 6.08496 25.0564 6.54581 25.0564 7.10907C25.0564 7.67233 25.5087 8.13318 26.0805 8.13318Z" fill="white"/>
<path d="M26.0805 11.6831H28.7603C29.3235 11.6831 29.7844 11.2223 29.7844 10.659C29.7844 10.0958 29.3235 9.63492 28.7603 9.63492H26.0805C25.5172 9.63492 25.0564 10.0958 25.0564 10.659C25.0564 11.2223 25.5087 11.6831 26.0805 11.6831Z" fill="white"/>
<path d="M9.99347 24.6724H20.721C21.2843 24.6724 21.7451 24.2115 21.7451 23.6483C21.7451 23.085 21.2843 22.6242 20.721 22.6242H9.99347C9.43021 22.6242 8.96936 23.085 8.96936 23.6483C8.96936 24.2115 9.42168 24.6724 9.99347 24.6724Z" fill="white"/>
<path d="M9.99347 28.2229H18.0327C18.596 28.2229 19.0568 27.762 19.0568 27.1988C19.0568 26.6355 18.596 26.1747 18.0327 26.1747H9.99347C9.43021 26.1747 8.96936 26.6355 8.96936 27.1988C8.96936 27.762 9.42168 28.2229 9.99347 28.2229Z" fill="white"/>
<path d="M26.0805 24.6724H28.7603C29.3235 24.6724 29.7844 24.2115 29.7844 23.6483C29.7844 23.085 29.3235 22.6242 28.7603 22.6242H26.0805C25.5172 22.6242 25.0564 23.085 25.0564 23.6483C25.0564 24.2115 25.5087 24.6724 26.0805 24.6724Z" fill="white"/>
<path d="M26.0805 28.2229H28.7603C29.3235 28.2229 29.7844 27.762 29.7844 27.1988C29.7844 26.6355 29.3235 26.1747 28.7603 26.1747H26.0805C25.5172 26.1747 25.0564 26.6355 25.0564 27.1988C25.0564 27.762 25.5087 28.2229 26.0805 28.2229Z" fill="white"/>
</svg>
