<svg width="26" height="26" viewBox="0 0 26 26" fill="none" xmlns="http://www.w3.org/2000/svg">
<g clip-path="url(#clip0)">
<path d="M15.5122 11.0353C14.4079 11.0353 13.9147 11.6423 13.6388 12.0684V11.1829H11.559C11.586 11.7691 11.559 17.4403 11.559 17.4403H13.6388V13.9444C13.6388 13.7579 13.6507 13.5703 13.7069 13.4367C13.8576 13.0625 14.1995 12.6754 14.7743 12.6754C15.5268 12.6754 15.8277 13.2491 15.8277 14.091V17.4388H17.9074H17.9079V13.8504C17.9069 11.9296 16.8805 11.0353 15.5122 11.0353ZM13.6372 12.0902H13.6242C13.6284 12.083 13.6346 12.0762 13.6372 12.0689V12.0902Z" fill="white"/>
<path d="M10.4057 11.1827H8.32599V17.4402H10.4057V11.1827Z" fill="white"/>
<path d="M13.1605 -0.0330811C6.04664 -0.0330811 0.258972 5.75459 0.258972 12.8685C0.258972 19.9819 6.04664 25.7701 13.1605 25.7701C20.2739 25.7701 26.0621 19.9819 26.0621 12.8685C26.0621 5.75459 20.275 -0.0330811 13.1605 -0.0330811ZM20.0021 18.704C20.0021 19.2527 19.5469 19.6966 18.9841 19.6966H7.24918C6.68793 19.6966 6.23217 19.2527 6.23217 18.704V6.83241C6.23217 6.28414 6.68793 5.83982 7.24918 5.83982H18.9841C19.5464 5.83982 20.0021 6.28466 20.0021 6.83241V18.704Z" fill="white"/>
<path d="M9.38072 8.16614C8.6698 8.16614 8.20416 8.63281 8.20416 9.24707C8.20416 9.8473 8.65576 10.328 9.35317 10.328H9.36669C10.0922 10.328 10.5438 9.8473 10.5438 9.24707C10.5297 8.63333 10.0927 8.16614 9.38072 8.16614Z" fill="white"/>
</g>
<defs>
<clipPath id="clip0">
<rect width="25.6348" height="26" fill="white" transform="translate(0.364929)"/>
</clipPath>
</defs>
</svg>
