<svg width="139" height="44" viewBox="0 0 139 44" fill="none" xmlns="http://www.w3.org/2000/svg">
<path d="M8.76157 12.5825C10.8203 12.5825 12.4721 12.9775 13.7169 13.7675C14.9856 14.5575 15.62 15.8262 15.62 17.5737C15.62 18.4355 15.3687 19.1417 14.8659 19.6923C14.3632 20.219 13.681 20.4823 12.8192 20.4823C11.9813 20.4823 11.3589 20.2908 10.952 19.9078C11.1435 19.3811 11.2392 18.7826 11.2392 18.1124C11.2392 16.0058 10.3056 14.9524 8.4384 14.9524C7.52872 14.9524 6.81056 15.1799 6.28391 15.6347C5.7812 16.0656 5.52984 16.7119 5.52984 17.5737C5.52984 18.3637 5.73332 19.0819 6.14028 19.7282C6.54724 20.3746 7.04995 20.9491 7.64842 21.4518C8.27082 21.9545 9.10868 22.565 10.162 23.2831C11.4068 24.121 12.4003 24.875 13.1424 25.5453C13.9084 26.1917 14.5547 26.9816 15.0814 27.9153C15.608 28.8249 15.8714 29.8782 15.8714 31.0752C15.8714 33.2057 15.1412 34.8575 13.681 36.0305C12.2207 37.2035 10.3296 37.79 8.0075 37.79C5.90089 37.79 4.15337 37.3711 2.76492 36.5332C1.40041 35.6714 0.718161 34.3428 0.718161 32.5474C0.718161 31.6856 0.969518 30.9914 1.47223 30.4647C1.97494 29.9141 2.64523 29.6388 3.48308 29.6388C4.32094 29.6388 4.94334 29.8304 5.3503 30.2134C5.18273 30.6921 5.09895 31.2906 5.09895 32.0088C5.09895 34.283 6.17619 35.42 8.33067 35.42C9.38398 35.42 10.2458 35.1328 10.9161 34.5583C11.5863 33.9598 11.9215 33.1578 11.9215 32.1524C11.9215 31.3624 11.718 30.6443 11.311 29.9979C10.9041 29.3516 10.3894 28.7771 9.76699 28.2743C9.16853 27.7716 8.34264 27.1612 7.28934 26.443C6.04452 25.6052 5.0391 24.8631 4.27306 24.2167C3.53096 23.5464 2.89658 22.7565 2.36993 21.8468C1.84328 20.9132 1.57996 19.8479 1.57996 18.651C1.57996 16.7359 2.25024 15.2517 3.59081 14.1984C4.95531 13.1211 6.6789 12.5825 8.76157 12.5825ZM21.3179 11.1462C22.1079 11.1462 22.7422 11.3377 23.221 11.7207C23.7237 12.1037 23.9751 12.6543 23.9751 13.3725C23.9751 14.1146 23.7118 14.6891 23.1851 15.0961C22.6824 15.4791 22.0241 15.6706 21.2102 15.6706C20.4202 15.6706 19.7858 15.4791 19.307 15.0961C18.8283 14.7131 18.5889 14.1625 18.5889 13.4443C18.5889 12.7022 18.8402 12.1396 19.3429 11.7566C19.8696 11.3497 20.5279 11.1462 21.3179 11.1462ZM23.1851 34.0555C23.1851 35.2285 23.5562 36.0185 24.2983 36.4255C24.1067 36.7846 23.7955 37.0598 23.3646 37.2514C22.9338 37.4429 22.4669 37.5386 21.9642 37.5386C21.0546 37.5386 20.3723 37.2753 19.9175 36.7486C19.4626 36.222 19.2352 35.4799 19.2352 34.5223V18.6869H23.1851V34.0555ZM28.0737 18.6869L31.3772 18.256L31.5567 21.4877C32.0116 20.3387 32.7058 19.4649 33.6394 18.8664C34.597 18.268 35.7101 17.9687 36.9789 17.9687C38.3912 17.9687 39.4924 18.256 40.2824 18.8305C41.0724 19.3811 41.6349 20.207 41.9701 21.3082C42.9037 19.0819 44.6033 17.9687 47.069 17.9687C49.0799 17.9687 50.4803 18.5313 51.2703 19.6564C52.0602 20.7576 52.4552 22.4453 52.4552 24.7194V34.0555C52.4552 35.2285 52.8263 36.0185 53.5684 36.4255C53.3769 36.7846 53.0657 37.0598 52.6348 37.2514C52.2039 37.4429 51.749 37.5386 51.2703 37.5386C50.3367 37.5386 49.6424 37.2753 49.1876 36.7486C48.7328 36.222 48.5053 35.4799 48.5053 34.5223V25.2222C48.5053 23.714 48.3378 22.5889 48.0026 21.8468C47.6675 21.1047 46.9254 20.7336 45.7763 20.7336C44.4118 20.7336 43.5022 21.38 43.0473 22.6727C42.5925 23.9654 42.3651 25.6291 42.3651 27.6639V37H38.4152V25.2222C38.4152 23.714 38.2476 22.5889 37.9125 21.8468C37.5773 21.1047 36.8352 20.7336 35.6862 20.7336C34.2259 20.7336 33.2444 21.38 32.7417 22.6727C32.2629 23.9654 32.0235 25.6291 32.0235 27.6639V37H28.0737V18.6869ZM66.1216 17.9687C68.3719 17.9687 69.9758 18.8784 70.9333 20.6977C71.8908 22.4931 72.3696 24.7913 72.3696 27.5921C72.3696 30.6562 71.7113 33.1219 70.3947 34.9891C69.0781 36.8564 67.0552 37.79 64.3262 37.79C63.1772 37.79 62.1358 37.6344 61.2022 37.3232V43.4994L57.2523 43.9303V18.6869L60.5559 18.256L60.7354 21.4877C61.7408 19.1417 63.5362 17.9687 66.1216 17.9687ZM64.7212 20.7336C63.4764 20.7336 62.5787 21.2364 62.0281 22.2418C61.4775 23.2233 61.2022 24.4681 61.2022 25.9762V34.5223C62.3034 35.2644 63.4046 35.6355 64.5058 35.6355C65.966 35.6355 66.9236 34.8934 67.3784 33.4092C67.8332 31.925 68.0607 30.0458 68.0607 27.7716C68.0607 25.6411 67.8572 23.9414 67.4502 22.6727C67.0433 21.38 66.1336 20.7336 64.7212 20.7336ZM79.926 11.4335V34.0555C79.926 35.2285 80.2971 36.0185 81.0392 36.4255C80.8477 36.7846 80.5245 37.0598 80.0697 37.2514C79.6388 37.4429 79.1839 37.5386 78.7051 37.5386C77.7955 37.5386 77.1132 37.2753 76.6584 36.7486C76.2036 36.222 75.9761 35.4799 75.9761 34.5223V11.8644L79.926 11.4335ZM96.5139 31.937C97.0645 32.2003 97.3398 32.715 97.3398 33.481C97.3398 34.3428 97.0525 35.1088 96.478 35.7791C95.9034 36.4255 95.1613 36.9162 94.2517 37.2514C93.342 37.6104 92.4203 37.79 91.4867 37.79C88.8535 37.79 86.9025 36.9402 85.6337 35.2405C84.365 33.5169 83.7306 31.2068 83.7306 28.3102C83.7306 25.2222 84.4128 22.7325 85.7774 20.8414C87.1658 18.9263 89.2604 17.9687 92.0613 17.9687C93.8327 17.9687 95.2571 18.4355 96.3343 19.3691C97.4116 20.2788 97.9502 21.5715 97.9502 23.2472C97.9502 25.3299 97.2201 26.7901 95.7598 27.628C94.3235 28.4658 92.3605 28.8848 89.8709 28.8848C89.1767 28.8848 88.5183 28.8608 87.8959 28.813C87.9677 30.7041 88.2789 32.2123 88.8295 33.3374C89.4041 34.4625 90.4095 35.0251 91.8458 35.0251C92.8991 35.0251 93.8208 34.7617 94.6107 34.2351C95.4247 33.6845 96.059 32.9184 96.5139 31.937ZM91.4867 20.0155C90.194 20.0155 89.2844 20.6977 88.7577 22.0622C88.2311 23.4028 87.9438 25.0546 87.8959 27.0176C88.6141 27.0654 89.1407 27.0894 89.4759 27.0894C92.4922 27.0894 94.0003 25.8805 94.0003 23.4627C94.0003 22.4812 93.7849 21.6673 93.354 21.0209C92.947 20.3506 92.3246 20.0155 91.4867 20.0155Z" fill="white"/>
<rect x="98.6506" y="23.3113" width="16.8922" height="2.02707" rx="1.01353" fill="white"/>
<rect x="98.6506" y="14.1895" width="8.78396" height="2.02707" rx="1.01353" fill="white"/>
<rect x="101.016" y="39.8657" width="30.7439" height="2.02707" rx="1.01353" transform="rotate(-90 101.016 39.8657)" fill="white"/>
<rect x="134.462" y="39.8657" width="30.7439" height="2.02707" rx="1.01353" transform="rotate(-90 134.462 39.8657)" fill="white"/>
<path d="M114.63 30.9119C113.006 30.9119 111.685 32.2323 111.685 33.8565C111.685 35.4806 113.006 36.8011 114.63 36.8011C116.254 36.8011 117.574 35.4806 117.574 33.8565C117.574 32.2323 116.254 30.9119 114.63 30.9119Z" fill="white"/>
<path d="M122.875 21.4891C121.251 21.4891 119.93 22.8096 119.93 24.4337C119.93 26.0579 121.251 27.3783 122.875 27.3783C124.499 27.3783 125.819 26.0579 125.819 24.4337C125.819 22.8096 124.499 21.4891 122.875 21.4891Z" fill="white"/>
<path d="M114.63 17.9556C116.254 17.9556 117.574 16.6351 117.574 15.011C117.574 13.3869 116.254 12.0664 114.63 12.0664C113.006 12.0664 111.685 13.3869 111.685 15.011C111.685 16.6351 113.006 17.9556 114.63 17.9556Z" fill="white"/>
<path d="M109.028 17.9556C110.652 17.9556 111.972 16.6351 111.972 15.011C111.972 13.3869 110.652 12.0664 109.028 12.0664C107.404 12.0664 106.083 13.3869 106.083 15.011C106.083 16.6351 107.404 17.9556 109.028 17.9556Z" fill="white"/>
<rect width="8.78396" height="2.02707" rx="1.01353" transform="matrix(-1 0 0 1 139 23.4073)" fill="white"/>
<path d="M128.623 27.1735C126.999 27.1735 125.678 25.853 125.678 24.2289C125.678 22.6048 126.999 21.2843 128.623 21.2843C130.247 21.2843 131.568 22.6048 131.568 24.2289C131.568 25.853 130.247 27.1735 128.623 27.1735Z" fill="white"/>
<rect x="98.313" y="32.8669" width="8.78396" height="2.02707" rx="1.01353" fill="white"/>
<path d="M108.69 36.6331C110.314 36.6331 111.635 35.3126 111.635 33.6885C111.635 32.0644 110.314 30.7439 108.69 30.7439C107.066 30.7439 105.745 32.0644 105.745 33.6885C105.745 35.3126 107.066 36.6331 108.69 36.6331Z" fill="white"/>
<path d="M117.136 27.5113C118.76 27.5113 120.081 26.1908 120.081 24.5667C120.081 22.9425 118.76 21.6221 117.136 21.6221C115.512 21.6221 114.192 22.9425 114.192 24.5667C114.192 26.1908 115.512 27.5113 117.136 27.5113Z" fill="white"/>
<rect width="16.8922" height="2.02707" rx="1.01353" transform="matrix(-1 0 0 1 139 32.771)" fill="white"/>
<path d="M120.515 36.9709C118.891 36.9709 117.57 35.6504 117.57 34.0263C117.57 32.4021 118.891 31.0817 120.515 31.0817C122.139 31.0817 123.459 32.4021 123.459 34.0263C123.459 35.6504 122.139 36.9709 120.515 36.9709Z" fill="white"/>
<rect width="16.8922" height="2.02707" rx="1.01353" transform="matrix(-1 0 0 1 139 13.8517)" fill="white"/>
<path d="M120.515 18.0517C118.891 18.0517 117.57 16.7312 117.57 15.1071C117.57 13.4829 118.891 12.1625 120.515 12.1625C122.139 12.1625 123.459 13.4829 123.459 15.1071C123.459 16.7312 122.139 18.0517 120.515 18.0517Z" fill="white"/>
<path d="M122.879 27.5113C124.504 27.5113 125.824 26.1908 125.824 24.5667C125.824 22.9425 124.504 21.6221 122.879 21.6221C121.255 21.6221 119.935 22.9425 119.935 24.5667C119.935 26.1908 121.255 27.5113 122.879 27.5113Z" fill="white"/>
</svg>
