<svg width="40" height="40" viewBox="0 0 40 40" fill="none" xmlns="http://www.w3.org/2000/svg">
<g clip-path="url(#clip0)">
<path d="M33.987 13.3666C33.9866 13.3666 33.9861 13.3666 33.9857 13.3666H0.572699C0.256779 13.3663 0.000334457 13.622 3.26992e-07 13.938C3.26992e-07 13.9384 3.26992e-07 13.9389 3.26992e-07 13.9393V29.9775C-0.000333803 30.2934 0.255442 30.5499 0.571362 30.5502C0.57178 30.5502 0.572281 30.5502 0.572699 30.5502H23.2935C23.6098 30.5502 23.8662 30.2938 23.8662 29.9775C23.8662 29.6613 23.6098 29.4048 23.2935 29.4048H1.1454V14.512H33.413V15.9441C33.4126 16.26 33.6684 16.5164 33.9843 16.5168C33.9847 16.5168 33.9852 16.5168 33.9857 16.5168C34.3016 16.5171 34.558 16.2613 34.5584 15.9454C34.5584 15.945 34.5584 15.9445 34.5584 15.9441V13.9393C34.5587 13.6234 34.3029 13.367 33.987 13.3666Z" fill="white"/>
<path d="M30.1017 10.7076L3.37138 4.69327C3.22302 4.66011 3.06757 4.68701 2.93901 4.76812C2.81062 4.84989 2.71982 4.97912 2.68641 5.12764L1.34989 11.142C1.28123 11.4509 1.47603 11.7569 1.78493 11.8256C2.09383 11.8943 2.39989 11.6995 2.46856 11.3906L3.68011 5.9369L29.8505 11.8249C29.8919 11.8345 29.9343 11.8393 29.9768 11.839C30.293 11.8384 30.549 11.5815 30.5485 11.2653C30.548 10.9979 30.3625 10.7665 30.1017 10.7076Z" fill="white"/>
<path d="M26.8562 7.39372L10.818 0.711129C10.5393 0.594935 10.2181 0.714303 10.0829 0.984447L8.7464 3.65748C8.59545 3.93665 8.69937 4.2854 8.97862 4.43634C9.25778 4.58728 9.60653 4.48337 9.75747 4.20412C9.7634 4.19318 9.769 4.18198 9.77418 4.17062V4.17196L10.8708 1.9774L26.4138 8.4535C26.7065 8.57562 27.0428 8.43746 27.165 8.14476C27.2871 7.85223 27.1489 7.51593 26.8562 7.39372Z" fill="white"/>
<path d="M27.261 16.0396H21.957C21.6408 16.0396 21.3843 16.2961 21.3843 16.6123C21.3843 16.9286 21.6408 17.185 21.957 17.185H27.261C27.5773 17.185 27.8337 16.9286 27.8337 16.6123C27.8337 16.2961 27.5773 16.0396 27.261 16.0396Z" fill="white"/>
<path d="M16.6108 16.0777C13.363 16.0777 10.7302 18.7106 10.7302 21.9584C10.7335 25.2048 13.3644 27.8357 16.6108 27.8391C19.8587 27.8391 22.4915 25.2062 22.4915 21.9584C22.4915 18.7106 19.8587 16.0777 16.6108 16.0777ZM16.6108 26.7699C13.9535 26.7699 11.7994 24.6157 11.7994 21.9584C11.8023 19.3023 13.9548 17.1499 16.6108 17.1469C19.2682 17.1469 21.4223 19.3011 21.4223 21.9584C21.4223 24.6157 19.2682 26.7699 16.6108 26.7699Z" fill="white"/>
<path d="M32.6492 17.9489C29.1074 17.9489 25.2983 18.7855 25.2983 20.6219V36.6601C25.2983 38.4965 29.1074 39.3332 32.6492 39.3332C36.191 39.3332 40 38.4965 40 36.6601V20.6219C40 18.7855 36.191 17.9489 32.6492 17.9489ZM38.6635 36.6501C38.5626 37.021 36.5585 37.9967 32.6492 37.9967C28.7399 37.9967 26.7358 37.021 26.6349 36.6601V35.6096C28.0569 36.326 30.4058 36.6601 32.6492 36.6601C34.8925 36.6601 37.2421 36.3227 38.6635 35.609V36.6501ZM38.6635 33.9771C38.5626 34.348 36.5585 35.3236 32.6492 35.3236C28.7399 35.3236 26.7358 34.348 26.6349 33.9871V32.9366C28.0569 33.653 30.4058 33.9871 32.6492 33.9871C34.8925 33.9871 37.2421 33.6496 38.6635 32.9359V33.9771ZM38.6635 31.304C38.5626 31.6749 36.5585 32.6506 32.6492 32.6506C28.7399 32.6506 26.7358 31.6749 26.6349 31.3141V30.2636C28.0569 30.9799 30.4058 31.3141 32.6492 31.3141C34.8925 31.3141 37.2421 30.9766 38.6635 30.2629V31.304ZM38.6635 28.631C38.5626 29.0019 36.5585 29.9775 32.6492 29.9775C28.7399 29.9775 26.7358 29.0019 26.6349 28.641V27.5905C28.0569 28.3069 30.4058 28.641 32.6492 28.641C34.8925 28.641 37.2421 28.3036 38.6635 27.5899V28.631ZM38.6635 25.958C38.5626 26.3288 36.5585 27.3045 32.6492 27.3045C28.7399 27.3045 26.7358 26.3288 26.6349 25.968V24.9175C28.0569 25.6305 30.4058 25.968 32.6492 25.968C34.8925 25.968 37.2421 25.6305 38.6635 24.9168V25.958ZM38.6635 23.2849C38.5626 23.6558 36.5585 24.6315 32.6492 24.6315C28.7399 24.6315 26.7358 23.6558 26.6349 23.295V22.2445C28.0569 22.9575 30.4058 23.295 32.6492 23.295C34.8925 23.295 37.2421 22.9575 38.6635 22.2438V23.2849ZM32.6492 21.9584C28.7459 21.9584 26.7424 20.9855 26.6349 20.6339V20.6299C26.7424 20.2577 28.7459 19.2854 32.6492 19.2854C36.5251 19.2854 38.5299 20.2437 38.6635 20.6219C38.5299 21.0002 36.5251 21.9584 32.6492 21.9584Z" fill="white"/>
<path d="M11.2647 26.7311H6.21329L3.81825 24.1116V19.7679L6.46322 17.1851H11.2647C11.5809 17.1851 11.8374 16.9286 11.8374 16.6124C11.8374 16.2961 11.5809 16.0397 11.2647 16.0397H6.23066C6.08097 16.0393 5.93705 16.0976 5.82971 16.2021L2.84459 19.1137C2.73308 19.244 2.67193 19.41 2.67218 19.5814V24.3341C2.67218 24.477 2.72556 24.6148 2.82187 24.7204L5.53701 27.6901C5.64552 27.8089 5.79905 27.8766 5.96002 27.8765H11.2647C11.5809 27.8765 11.8374 27.6201 11.8374 27.3038C11.8374 26.9876 11.581 26.7311 11.2647 26.7311Z" fill="white"/>
</g>
<defs>
<clipPath id="clip0">
<rect width="40" height="40" fill="white"/>
</clipPath>
</defs>
</svg>
