<svg width="40" height="40" viewBox="0 0 40 40" fill="none" xmlns="http://www.w3.org/2000/svg">
<path d="M20 26.25C21.2361 26.25 22.4445 25.8834 23.4723 25.1967C24.5001 24.5099 25.3012 23.5338 25.7742 22.3918C26.2473 21.2497 26.3711 19.9931 26.1299 18.7807C25.8887 17.5683 25.2935 16.4547 24.4194 15.5806C23.5453 14.7065 22.4317 14.1113 21.2193 13.8701C20.0069 13.6289 18.7503 13.7527 17.6082 14.2258C16.4662 14.6988 15.4901 15.4999 14.8033 16.5277C14.1166 17.5555 13.75 18.7639 13.75 20C13.7518 21.657 14.4109 23.2457 15.5826 24.4174C16.7543 25.5891 18.343 26.2482 20 26.25ZM20 15C20.9889 15 21.9556 15.2932 22.7778 15.8427C23.6001 16.3921 24.241 17.173 24.6194 18.0866C24.9978 19.0002 25.0968 20.0055 24.9039 20.9754C24.711 21.9454 24.2348 22.8363 23.5355 23.5355C22.8363 24.2348 21.9453 24.711 20.9754 24.9039C20.0055 25.0968 19.0002 24.9978 18.0866 24.6194C17.1729 24.241 16.3921 23.6001 15.8427 22.7778C15.2932 21.9556 15 20.9889 15 20C15.0015 18.6744 15.5288 17.4035 16.4661 16.4661C17.4035 15.5288 18.6744 15.0015 20 15Z" fill="white"/>
<path d="M30.625 35.625C30.625 36.1223 30.4275 36.5992 30.0758 36.9508C29.7242 37.3025 29.2473 37.5 28.75 37.5H11.25C10.7527 37.5 10.2758 37.3025 9.92417 36.9508C9.57254 36.5992 9.375 36.1223 9.375 35.625V23.125H8.125V35.625C8.12599 36.4535 8.45555 37.2478 9.04139 37.8336C9.62722 38.4194 10.4215 38.749 11.25 38.75H28.75C29.5785 38.749 30.3728 38.4194 30.9586 37.8336C31.5444 37.2478 31.874 36.4535 31.875 35.625V27.5H30.625V35.625Z" fill="white"/>
<path d="M31.25 19.375H30V20.625H31.25V19.375Z" fill="white"/>
<path d="M9.375 4.375C9.375 3.87772 9.57254 3.40081 9.92417 3.04917C10.2758 2.69754 10.7527 2.5 11.25 2.5H28.75C29.2473 2.5 29.7242 2.69754 30.0758 3.04917C30.4275 3.40081 30.625 3.87772 30.625 4.375V12.5H31.875V4.375C31.874 3.5465 31.5444 2.75222 30.9586 2.16639C30.3728 1.58055 29.5785 1.25099 28.75 1.25H11.25C10.4215 1.25099 9.62722 1.58055 9.04139 2.16639C8.45555 2.75222 8.12599 3.5465 8.125 4.375V16.875H9.375V4.375Z" fill="white"/>
<path d="M30 13.75V4.375C30 4.04348 29.8683 3.72554 29.6339 3.49112C29.3995 3.2567 29.0815 3.125 28.75 3.125H25.3344C25.1436 3.12499 24.9554 3.16864 24.7841 3.2526C24.6129 3.33656 24.4631 3.4586 24.3462 3.60938L23.5075 4.375H16.4925L15.6537 3.60938C15.5369 3.4586 15.3871 3.33656 15.2159 3.2526C15.0446 3.16864 14.8564 3.12499 14.6656 3.125H11.25C10.9185 3.125 10.6005 3.2567 10.3661 3.49112C10.1317 3.72554 10 4.04348 10 4.375V16.875H11.25V4.375H14.6656C14.6937 4.41725 14.7269 4.45588 14.7644 4.49L15.8269 5.46188C15.9425 5.5673 16.0935 5.62551 16.25 5.625H23.75C23.9058 5.62505 24.0561 5.56687 24.1712 5.46188L25.2338 4.49C25.2718 4.45582 25.3055 4.41721 25.3344 4.375H28.75V13.75H30Z" fill="white"/>
<path d="M28.75 19.375H27.5V20.625H28.75V19.375Z" fill="white"/>
<path d="M30 32.5V26.25H28.75V32.5H11.25V23.125H10V32.5C10 32.8315 10.1317 33.1495 10.3661 33.3839C10.6005 33.6183 10.9185 33.75 11.25 33.75H28.75C29.0815 33.75 29.3995 33.6183 29.6339 33.3839C29.8683 33.1495 30 32.8315 30 32.5Z" fill="white"/>
<path d="M21.875 35H18.125V36.25H21.875V35Z" fill="white"/>
<path d="M9.55813 21.4331L10.4419 22.3169L12.3169 20.4419C12.434 20.3247 12.4999 20.1657 12.4999 20C12.4999 19.8343 12.434 19.6753 12.3169 19.5581L10.4419 17.6831L9.55813 18.5669L10.3663 19.375H6.25V20.625H10.3663L9.55813 21.4331Z" fill="white"/>
<path d="M38.5669 19.5581L36.6919 17.6831L35.8081 18.5669L36.6163 19.375H32.5V20.625H36.6163L35.8081 21.4331L36.6919 22.3169L38.5669 20.4419C38.684 20.3247 38.7499 20.1657 38.7499 20C38.7499 19.8343 38.684 19.6753 38.5669 19.5581Z" fill="white"/>
<path d="M28.75 15V16.25H32.8663L32.0581 17.0581L32.9419 17.9419L34.8169 16.0669C34.934 15.9497 34.9999 15.7907 34.9999 15.625C34.9999 15.4593 34.934 15.3003 34.8169 15.1831L32.9419 13.3081L32.0581 14.1919L32.8663 15H28.75Z" fill="white"/>
<path d="M32.9419 22.0581L32.0581 22.9419L32.8663 23.75H28.75V25H32.8663L32.0581 25.8081L32.9419 26.6919L34.8169 24.8169C34.934 24.6997 34.9999 24.5407 34.9999 24.375C34.9999 24.2093 34.934 24.0503 34.8169 23.9331L32.9419 22.0581Z" fill="white"/>
<path d="M5 19.375H3.75V20.625H5V19.375Z" fill="white"/>
<path d="M2.5 19.375H1.25V20.625H2.5V19.375Z" fill="white"/>
<path d="M27.5 23.75H26.25V25H27.5V23.75Z" fill="white"/>
<path d="M27.5 15H26.25V16.25H27.5V15Z" fill="white"/>
<path d="M20.625 9.375H19.375V10.625H20.625V9.375Z" fill="white"/>
<path d="M23.125 9.375H21.875V10.625H23.125V9.375Z" fill="white"/>
<path d="M18.125 9.375H16.875V10.625H18.125V9.375Z" fill="white"/>
</svg>
