<svg width="45" height="45" viewBox="0 0 45 45" fill="none" xmlns="http://www.w3.org/2000/svg">
<g clip-path="url(#clip0)">
<path d="M5.75439 16.2746C5.03265 15.9859 4.16655 16.2746 3.87785 16.9963C3.58915 17.7181 3.30046 18.4398 3.01176 19.3059C2.86741 20.0276 3.30046 20.7494 4.0222 21.0381C4.16655 21.0381 4.3109 21.0381 4.45525 21.0381C5.03265 21.0381 5.61004 20.605 5.75439 20.172C5.89874 19.4503 6.18744 18.7285 6.47614 18.1511C6.76484 17.4294 6.47614 16.5633 5.75439 16.2746Z" fill="white"/>
<path d="M5.75479 28.9773C5.46609 27.8225 5.17739 26.6677 5.17739 25.5129C5.03304 24.7911 4.31129 24.2137 3.58955 24.2137C2.8678 24.3581 2.29041 24.9355 2.29041 25.8016C2.29041 27.2451 2.5791 28.6886 2.8678 29.9877C3.1565 30.5651 3.7339 30.9982 4.31129 30.9982C4.45564 30.9982 4.59999 30.9982 4.74434 30.7095C5.46609 30.5651 5.89914 29.699 5.75479 28.9773Z" fill="white"/>
<path d="M11.9618 38.5043C10.374 37.3495 9.07482 35.906 7.92002 34.1738C7.48698 33.4521 6.62088 33.3077 5.89914 33.7408C5.17739 34.1738 5.03305 35.0399 5.46609 35.7616C6.76523 37.6382 8.35307 39.3704 10.2296 40.8139C10.5183 40.9582 10.807 41.1026 11.0957 41.1026C11.5287 41.1026 11.9618 40.9582 12.2505 40.5252C12.6835 39.9478 12.5392 38.9373 11.9618 38.5043Z" fill="white"/>
<path d="M29.5723 42.2574C29.2836 41.3913 28.4175 40.9582 27.6957 41.2469C24.3757 42.2574 20.767 42.2574 17.4469 41.2469C16.5809 41.1026 15.8591 41.5356 15.5704 42.2574C15.4261 43.1235 15.8591 43.8452 16.5809 44.1339C18.4574 44.7113 20.4783 45 22.4992 45C24.5201 45 26.5409 44.7113 28.5618 44.1339C29.4279 43.8452 29.861 43.1235 29.5723 42.2574Z" fill="white"/>
<path d="M41.2645 17.1406C39.2436 12.0884 35.3462 8.19099 30.4383 6.02575C27.1183 4.58226 23.5095 4.14922 19.9008 4.58226C19.0347 4.72661 18.4573 5.44836 18.6017 6.1701C18.746 7.0362 19.4678 7.61359 20.1895 7.46924C23.3652 7.0362 26.3965 7.61359 29.2835 8.76839C33.4696 10.6449 36.7896 13.965 38.5218 18.2954C40.254 22.6259 40.254 27.3894 38.3775 31.5755C37.2227 34.1738 35.4905 36.6278 33.1809 38.3599C32.4592 38.793 32.4592 39.8034 32.8922 40.3808C33.1809 40.8139 33.614 40.9582 34.047 40.9582C34.3357 40.9582 34.6244 40.9582 35.0575 40.5252C37.6557 38.5043 39.821 35.7617 41.1201 32.586C43.141 27.6781 43.2854 22.1928 41.2645 17.1406Z" fill="white"/>
<path d="M25.9636 0.540491C25.5306 -0.0369052 24.5201 -0.181254 23.9427 0.251793L18.6018 4.29357C17.8801 4.72661 17.8801 5.73706 18.3131 6.31445L22.4992 11.7997C22.7879 12.2328 23.221 12.3771 23.654 12.3771C23.9427 12.3771 24.2314 12.3771 24.3758 12.2328C25.0975 11.7997 25.0975 10.7893 24.6645 10.2119L21.3444 5.88141L25.6749 2.56138C26.3967 2.12833 26.3967 1.11789 25.9636 0.540491Z" fill="white"/>
<g clip-path="url(#clip1)">
<path d="M29.5507 40.6536C29.5505 40.6534 29.5503 40.6532 29.5502 40.653L17.6614 25.0239C17.5492 24.876 17.3383 24.8471 17.1904 24.9593C17.1902 24.9595 17.19 24.9596 17.1898 24.9598L9.68783 30.6664C9.53994 30.7786 9.511 30.9895 9.62325 31.1374C9.6234 31.1376 9.62357 31.1378 9.62372 31.138L17.7081 41.7658C17.8206 41.9137 18.0318 41.9424 18.1797 41.8299C18.3277 41.7174 18.3564 41.5062 18.2438 41.3583L10.3633 30.9984L17.3295 25.6993L28.8106 40.7926L28.1408 41.3022C27.9929 41.4144 27.9639 41.6253 28.0762 41.7732C28.0763 41.7734 28.0765 41.7736 28.0767 41.7738C28.1889 41.9217 28.3998 41.9507 28.5477 41.8384C28.5479 41.8383 28.5481 41.8381 28.5483 41.838L29.4861 41.1246C29.634 41.0124 29.6629 40.8015 29.5507 40.6536Z" fill="white"/>
<path d="M29.4121 37.8902L22.7143 23.247C22.6771 23.1658 22.6092 23.1026 22.5255 23.0714C22.4415 23.0404 22.3488 23.0439 22.2674 23.0811L18.9787 24.5959C18.8097 24.6737 18.7359 24.8737 18.8137 25.0427C18.8915 25.2116 19.0915 25.2854 19.2604 25.2076L22.2425 23.8339L28.8 38.1702C28.8103 38.193 28.8231 38.2145 28.8384 38.2343C28.9512 38.382 29.1624 38.4103 29.3102 38.2976C29.4351 38.2022 29.4773 38.0331 29.4121 37.8902Z" fill="white"/>
<path d="M29.8072 35.1928L27.2264 25.3131C27.1816 25.1414 27.0115 25.0336 26.837 25.0665L25.1112 25.3925C24.9269 25.4212 24.8007 25.5939 24.8295 25.7782C24.8582 25.9625 25.0309 26.0887 25.2152 26.0599C25.2225 26.0588 25.2297 26.0574 25.2368 26.0558L25.2362 26.0563L26.6529 25.7884L29.1541 35.363C29.2011 35.5433 29.3854 35.6515 29.5658 35.6045C29.7461 35.5575 29.8542 35.3732 29.8072 35.1928Z" fill="white"/>
<path d="M25.9071 38.4586L24.0199 35.9776C23.9074 35.8297 23.6962 35.801 23.5483 35.9135C23.4004 36.026 23.3716 36.2372 23.4842 36.3851L25.3714 38.8661C25.4839 39.014 25.6951 39.0427 25.843 38.9302C25.991 38.8177 26.0197 38.6065 25.9071 38.4586Z" fill="white"/>
<path d="M22.0999 33.4906C20.9443 31.9714 18.7759 31.6766 17.2568 32.8323C15.7394 33.9889 15.4449 36.1557 16.5985 37.6754C17.7541 39.1946 19.9224 39.4893 21.4416 38.3337C22.9608 37.1781 23.2555 35.0097 22.0999 33.4906ZM17.0986 37.2949C16.1531 36.052 16.3942 34.2779 17.6372 33.3324C18.8806 32.3887 20.6533 32.6296 21.5998 33.871C22.5453 35.114 22.3041 36.888 21.0612 37.8336C19.8182 38.7791 18.0441 38.5379 17.0986 37.2949Z" fill="white"/>
<path d="M15.2144 34.7803L13.4171 32.4175L13.7902 30.3651L15.822 28.8196L17.9712 29.1378L19.6796 31.3837C19.7922 31.5316 20.0034 31.5603 20.1513 31.4478C20.2992 31.3352 20.3279 31.124 20.2154 30.9761L18.4242 28.6214C18.3711 28.5513 18.2926 28.5047 18.2056 28.4917L15.7816 28.1313C15.6809 28.1256 15.5815 28.156 15.5014 28.2171L13.2783 29.9082C13.2115 29.9591 13.166 30.033 13.1509 30.1156L12.7279 32.4423C12.7109 32.5354 12.7339 32.6313 12.7912 32.7065L14.6786 35.1878C14.7912 35.3357 15.0024 35.3644 15.1503 35.2519C15.2982 35.1394 15.327 34.9282 15.2144 34.7803Z" fill="white"/>
</g>
</g>
<defs>
<clipPath id="clip0">
<rect width="45" height="45" fill="white"/>
</clipPath>
<clipPath id="clip1">
<rect width="23.5082" height="23.5082" fill="white" transform="translate(23.71 20) rotate(52.7404)"/>
</clipPath>
</defs>
</svg>
