<svg width="18" height="18" viewBox="0 0 18 18" fill="none" xmlns="http://www.w3.org/2000/svg">
<g clip-path="url(#clip0)">
<path d="M3.80673 10.6488L3.20884 12.8808L1.02357 12.9271C0.370496 11.7158 6.10352e-05 10.3299 6.10352e-05 8.85712C6.10352e-05 7.43298 0.346408 6.09 0.960333 4.90747H0.960803L2.90631 5.26415L3.75855 7.19798C3.58018 7.718 3.48296 8.27624 3.48296 8.85712C3.48303 9.48755 3.59722 10.0916 3.80673 10.6488Z" fill="#FBBB00"/>
<path d="M17.0265 7.25275C17.1251 7.77227 17.1765 8.3088 17.1765 8.85714C17.1765 9.472 17.1119 10.0718 16.9887 10.6503C16.5707 12.619 15.4782 14.338 13.9649 15.5545L13.9645 15.5541L11.514 15.429L11.1672 13.264C12.1713 12.6751 12.9561 11.7536 13.3695 10.6503H8.7771V7.25275H13.4365H17.0265Z" fill="#518EF8"/>
<path d="M13.9644 15.5541L13.9649 15.5546C12.4931 16.7376 10.6235 17.4454 8.58829 17.4454C5.31768 17.4454 2.47413 15.6174 1.02356 12.9272L3.80672 10.6489C4.53199 12.5846 6.39923 13.9625 8.58829 13.9625C9.5292 13.9625 10.4107 13.7081 11.1671 13.2641L13.9644 15.5541Z" fill="#28B446"/>
<path d="M14.0701 2.24609L11.2879 4.52385C10.5051 4.03453 9.57969 3.75185 8.58829 3.75185C6.34968 3.75185 4.44752 5.19297 3.75858 7.19802L0.960797 4.90751H0.960327C2.38966 2.15172 5.26907 0.268921 8.58829 0.268921C10.6721 0.268921 12.5828 1.0112 14.0701 2.24609Z" fill="#F14336"/>
</g>
<defs>
<clipPath id="clip0">
<rect width="17.1765" height="17.1765" fill="white" transform="translate(0 0.268921)"/>
</clipPath>
</defs>
</svg>
