<svg width="1440" height="863" viewBox="0 0 1440 863" fill="none" xmlns="http://www.w3.org/2000/svg">
<g filter="url(#filter0_f)">
<line x1="2" y1="47.5" x2="1442" y2="47.5001" stroke="#C4C4C4" stroke-opacity="0.4"/>
<circle cx="75.5" cy="88.5" r="26.5" fill="#C4C4C4"/>
<rect x="107" y="72" width="86" height="11" rx="3" fill="#C4C4C4"/>
<rect x="297" y="88" width="104" height="15" rx="3" fill="#C4C4C4"/>
<rect x="297" y="691" width="199" height="15" rx="3" fill="#C4C4C4"/>
<rect x="297" y="744" width="47" height="8" rx="3" fill="#C4C4C4"/>
<rect x="415" y="744" width="47" height="8" rx="3" fill="#C4C4C4"/>
<rect x="558" y="744" width="47" height="8" rx="3" fill="#C4C4C4"/>
<rect x="839" y="744" width="47" height="8" rx="3" fill="#C4C4C4"/>
<rect x="998" y="744" width="47" height="8" rx="3" fill="#C4C4C4"/>
<rect x="297" y="767" width="750" height="25" rx="3" fill="#C4C4C4"/>
<rect x="297" y="800" width="750" height="25" rx="3" fill="#C4C4C4"/>
<rect x="297" y="833" width="750" height="25" rx="3" fill="#C4C4C4"/>
<rect x="1122" y="88" width="164" height="15" rx="3" fill="#C4C4C4"/>
<rect x="296" y="148" width="243" height="152" rx="3" fill="#C4C4C4"/>
<rect x="296" y="363" width="505" height="255" rx="3" fill="#C4C4C4"/>
<rect x="824" y="363" width="247" height="255" rx="3" fill="#C4C4C4"/>
<rect x="1121" y="466" width="247" height="152" rx="3" fill="#C4C4C4"/>
<rect x="1121" y="149" width="247" height="291" rx="3" fill="#C4C4C4"/>
<rect x="558" y="148" width="243" height="152" rx="3" fill="#C4C4C4"/>
<rect x="824" y="148" width="243" height="152" rx="3" fill="#C4C4C4"/>
<rect x="103" y="235" width="107" height="11" rx="3" fill="#C4C4C4"/>
<rect x="64" y="235" width="17" height="11" rx="3" fill="#C4C4C4"/>
<rect x="103" y="275" width="107" height="11" rx="3" fill="#C4C4C4"/>
<rect x="64" y="275" width="17" height="11" rx="3" fill="#C4C4C4"/>
<rect x="103" y="315" width="107" height="11" rx="3" fill="#C4C4C4"/>
<rect x="64" y="315" width="17" height="11" rx="3" fill="#C4C4C4"/>
<rect x="103" y="355" width="107" height="11" rx="3" fill="#C4C4C4"/>
<rect x="64" y="355" width="17" height="11" rx="3" fill="#C4C4C4"/>
<rect x="103" y="395" width="107" height="11" rx="3" fill="#C4C4C4"/>
<rect x="64" y="395" width="17" height="11" rx="3" fill="#C4C4C4"/>
<rect x="64" y="435" width="146" height="11" rx="3" fill="#C4C4C4"/>
<rect x="44" y="141" width="225" height="34" rx="17" fill="#C4C4C4"/>
<path d="M82.715 9.28605C84.2928 9.28605 85.5588 9.58878 86.5128 10.1942C87.4852 10.7997 87.9714 11.7721 87.9714 13.1114C87.9714 13.7719 87.7788 14.3131 87.3935 14.7351C87.0082 15.1387 86.4853 15.3406 85.8248 15.3406C85.1827 15.3406 84.7057 15.1938 84.3938 14.9002C84.5405 14.4966 84.6139 14.0379 84.6139 13.5242C84.6139 11.9097 83.8984 11.1024 82.4673 11.1024C81.7701 11.1024 81.2197 11.2767 80.8161 11.6253C80.4308 11.9555 80.2382 12.4509 80.2382 13.1114C80.2382 13.7169 80.3941 14.2673 80.706 14.7626C81.0179 15.258 81.4032 15.6983 81.8619 16.0836C82.3389 16.4689 82.981 16.9368 83.7883 17.4872C84.7423 18.1293 85.5037 18.7072 86.0725 19.221C86.6596 19.7163 87.155 20.3218 87.5586 21.0373C87.9622 21.7345 88.1641 22.5418 88.1641 23.4591C88.1641 25.092 87.6045 26.3579 86.4853 27.2569C85.3661 28.1559 83.9167 28.6055 82.1371 28.6055C80.5225 28.6055 79.1832 28.2844 78.1191 27.6422C77.0733 26.9817 76.5504 25.9635 76.5504 24.5875C76.5504 23.927 76.7431 23.3949 77.1283 22.9913C77.5136 22.5693 78.0273 22.3583 78.6695 22.3583C79.3116 22.3583 79.7887 22.5051 80.1006 22.7986C79.9721 23.1656 79.9079 23.6242 79.9079 24.1746C79.9079 25.9176 80.7335 26.7891 82.3848 26.7891C83.192 26.7891 83.8525 26.5689 84.3662 26.1286C84.88 25.6699 85.1368 25.0553 85.1368 24.2847C85.1368 23.6793 84.9809 23.1289 84.669 22.6335C84.3571 22.1381 83.9626 21.6978 83.4856 21.3125C83.0269 20.9272 82.3939 20.4594 81.5867 19.909C80.6326 19.2668 79.862 18.6981 79.2749 18.2027C78.7062 17.689 78.22 17.0835 77.8164 16.3863C77.4127 15.6708 77.2109 14.8544 77.2109 13.937C77.2109 12.4693 77.7246 11.3317 78.7521 10.5245C79.7978 9.69886 81.1188 9.28605 82.715 9.28605ZM92.3384 8.18523C92.9438 8.18523 93.43 8.33201 93.797 8.62556C94.1822 8.91911 94.3749 9.34109 94.3749 9.8915C94.3749 10.4603 94.1731 10.9006 93.7694 11.2125C93.3841 11.506 92.8796 11.6528 92.2558 11.6528C91.6504 11.6528 91.1642 11.506 90.7972 11.2125C90.4303 10.9189 90.2468 10.497 90.2468 9.94655C90.2468 9.37779 90.4395 8.94663 90.8247 8.65308C91.2284 8.34118 91.7329 8.18523 92.3384 8.18523ZM93.7694 25.7433C93.7694 26.6423 94.0538 27.2478 94.6226 27.5597C94.4758 27.8349 94.2373 28.0459 93.907 28.1926C93.5768 28.3394 93.219 28.4128 92.8337 28.4128C92.1365 28.4128 91.6137 28.211 91.2651 27.8074C90.9165 27.4037 90.7422 26.835 90.7422 26.1011V13.9645H93.7694V25.7433ZM97.5161 13.9645L100.048 13.6343L100.186 16.1111C100.534 15.2305 101.066 14.5608 101.782 14.1021C102.516 13.6435 103.369 13.4141 104.341 13.4141C105.424 13.4141 106.268 13.6343 106.873 14.0746C107.479 14.4966 107.91 15.1296 108.167 15.9735C108.882 14.2673 110.185 13.4141 112.074 13.4141C113.616 13.4141 114.689 13.8453 115.294 14.7076C115.9 15.5516 116.203 16.845 116.203 18.588V25.7433C116.203 26.6423 116.487 27.2478 117.056 27.5597C116.909 27.8349 116.67 28.0459 116.34 28.1926C116.01 28.3394 115.661 28.4128 115.294 28.4128C114.579 28.4128 114.047 28.211 113.698 27.8074C113.35 27.4037 113.175 26.835 113.175 26.1011V18.9733C113.175 17.8174 113.047 16.9551 112.79 16.3863C112.533 15.8176 111.964 15.5332 111.084 15.5332C110.038 15.5332 109.341 16.0286 108.992 17.0193C108.644 18.0101 108.469 19.2852 108.469 20.8447V28H105.442V18.9733C105.442 17.8174 105.314 16.9551 105.057 16.3863C104.8 15.8176 104.231 15.5332 103.35 15.5332C102.231 15.5332 101.479 16.0286 101.094 17.0193C100.727 18.0101 100.543 19.2852 100.543 20.8447V28H97.5161V13.9645ZM126.677 13.4141C128.401 13.4141 129.631 14.1113 130.364 15.5057C131.098 16.8817 131.465 18.643 131.465 20.7896C131.465 23.138 130.961 25.0278 129.952 26.4589C128.943 27.8899 127.392 28.6055 125.301 28.6055C124.42 28.6055 123.622 28.4862 122.906 28.2477V32.9812L119.879 33.3115V13.9645L122.411 13.6343L122.549 16.1111C123.319 14.3131 124.695 13.4141 126.677 13.4141ZM125.603 15.5332C124.649 15.5332 123.961 15.9185 123.539 16.6891C123.117 17.4413 122.906 18.3953 122.906 19.5512V26.1011C123.75 26.6698 124.594 26.9542 125.438 26.9542C126.557 26.9542 127.291 26.3855 127.64 25.2479C127.988 24.1104 128.163 22.6702 128.163 20.9272C128.163 19.2943 128.007 17.9917 127.695 17.0193C127.383 16.0286 126.686 15.5332 125.603 15.5332ZM137.257 8.4054V25.7433C137.257 26.6423 137.541 27.2478 138.11 27.5597C137.963 27.8349 137.715 28.0459 137.367 28.1926C137.036 28.3394 136.688 28.4128 136.321 28.4128C135.624 28.4128 135.101 28.211 134.752 27.8074C134.404 27.4037 134.229 26.835 134.229 26.1011V8.73564L137.257 8.4054ZM149.97 24.1196C150.392 24.3214 150.603 24.7159 150.603 25.303C150.603 25.9635 150.383 26.5506 149.942 27.0643C149.502 27.5597 148.933 27.9358 148.236 28.1926C147.539 28.4678 146.832 28.6055 146.117 28.6055C144.099 28.6055 142.603 27.9541 141.631 26.6515C140.659 25.3305 140.172 23.56 140.172 21.34C140.172 18.9733 140.695 17.0652 141.741 15.6158C142.805 14.148 144.411 13.4141 146.557 13.4141C147.915 13.4141 149.007 13.7719 149.832 14.4874C150.658 15.1846 151.071 16.1754 151.071 17.4596C151.071 19.0558 150.511 20.175 149.392 20.8171C148.291 21.4593 146.787 21.7804 144.878 21.7804C144.346 21.7804 143.842 21.762 143.365 21.7253C143.42 23.1747 143.658 24.3306 144.08 25.1929C144.521 26.0552 145.291 26.4864 146.392 26.4864C147.199 26.4864 147.906 26.2846 148.511 25.8809C149.135 25.4589 149.621 24.8718 149.97 24.1196ZM146.117 14.9828C145.126 14.9828 144.429 15.5057 144.025 16.5515C143.622 17.5789 143.402 18.8448 143.365 20.3493C143.915 20.386 144.319 20.4043 144.576 20.4043C146.887 20.4043 148.043 19.4778 148.043 17.6248C148.043 16.8725 147.878 16.2487 147.548 15.7534C147.236 15.2397 146.759 14.9828 146.117 14.9828Z" fill="#157FCC"/>
<rect x="151.608" y="17.8661" width="12.9465" height="1.55358" rx="0.776788" fill="#8FC038"/>
<rect x="151.608" y="10.875" width="6.73217" height="1.55358" rx="0.776788" fill="#8FC038"/>
<rect x="153.42" y="30.5537" width="23.5626" height="1.55358" rx="0.776788" transform="rotate(-90 153.42 30.5537)" fill="#8FC038"/>
<rect x="179.055" y="30.5537" width="23.5626" height="1.55358" rx="0.776788" transform="rotate(-90 179.055 30.5537)" fill="#8FC038"/>
<path d="M163.855 28.5507C162.61 28.5507 161.598 29.7179 161.598 31.1535C161.598 32.5891 162.61 33.7563 163.855 33.7563C165.1 33.7563 166.112 32.5891 166.112 31.1535C166.112 29.7179 165.1 28.5507 163.855 28.5507Z" fill="#8FC038"/>
<path d="M170.174 20.2216C168.929 20.2216 167.917 21.3888 167.917 22.8244C167.917 24.26 168.929 25.4272 170.174 25.4272C171.419 25.4272 172.431 24.26 172.431 22.8244C172.431 21.3888 171.419 20.2216 170.174 20.2216Z" fill="#8FC038"/>
<path d="M163.855 17.0982C165.1 17.0982 166.112 15.931 166.112 14.4954C166.112 13.0598 165.1 11.8926 163.855 11.8926C162.61 11.8926 161.598 13.0598 161.598 14.4954C161.598 15.931 162.61 17.0982 163.855 17.0982Z" fill="#8FC038"/>
<path d="M159.561 17.0982C160.806 17.0982 161.818 15.931 161.818 14.4954C161.818 13.0598 160.806 11.8926 159.561 11.8926C158.317 11.8926 157.305 13.0598 157.305 14.4954C157.305 15.931 158.317 17.0982 159.561 17.0982Z" fill="#8FC038"/>
<rect width="6.73217" height="1.55358" rx="0.776788" transform="matrix(-1 0 0 1 182.532 17.9397)" fill="#8FC038"/>
<path d="M174.579 25.2462C173.334 25.2462 172.322 24.079 172.322 22.6434C172.322 21.2077 173.334 20.0405 174.579 20.0405C175.824 20.0405 176.836 21.2077 176.836 22.6434C176.836 24.079 175.824 25.2462 174.579 25.2462Z" fill="#8FC038"/>
<rect x="151.349" y="25.1897" width="6.73217" height="1.55358" rx="0.776788" fill="#8FC038"/>
<path d="M159.302 33.6079C160.547 33.6079 161.559 32.4407 161.559 31.005C161.559 29.5694 160.547 28.4022 159.302 28.4022C158.057 28.4022 157.045 29.5694 157.045 31.005C157.045 32.4407 158.057 33.6079 159.302 33.6079Z" fill="#8FC038"/>
<path d="M165.776 25.5448C167.021 25.5448 168.033 24.3776 168.033 22.9419C168.033 21.5063 167.021 20.3391 165.776 20.3391C164.531 20.3391 163.519 21.5063 163.519 22.9419C163.519 24.3776 164.531 25.5448 165.776 25.5448Z" fill="#8FC038"/>
<rect width="12.9465" height="1.55358" rx="0.776788" transform="matrix(-1 0 0 1 182.532 25.1162)" fill="#8FC038"/>
<path d="M168.365 33.9065C167.12 33.9065 166.108 32.7392 166.108 31.3036C166.108 29.868 167.12 28.7008 168.365 28.7008C169.61 28.7008 170.622 29.868 170.622 31.3036C170.622 32.7392 169.61 33.9065 168.365 33.9065Z" fill="#8FC038"/>
<rect width="12.9465" height="1.55358" rx="0.776788" transform="matrix(-1 0 0 1 182.532 10.6161)" fill="#8FC038"/>
<path d="M168.365 17.1831C167.12 17.1831 166.108 16.0159 166.108 14.5802C166.108 13.1446 167.12 11.9774 168.365 11.9774C169.61 11.9774 170.622 13.1446 170.622 14.5802C170.622 16.0159 169.61 17.1831 168.365 17.1831Z" fill="#8FC038"/>
<path d="M170.177 25.5448C171.422 25.5448 172.434 24.3776 172.434 22.9419C172.434 21.5063 171.422 20.3391 170.177 20.3391C168.932 20.3391 167.92 21.5063 167.92 22.9419C167.92 24.3776 168.932 25.5448 170.177 25.5448Z" fill="#8FC038"/>
</g>
<defs>
<filter id="filter0_f" x="-4" y="0.991089" width="1452" height="929.009" filterUnits="userSpaceOnUse" color-interpolation-filters="sRGB">
<feFlood flood-opacity="0" result="BackgroundImageFix"/>
<feBlend mode="normal" in="SourceGraphic" in2="BackgroundImageFix" result="shape"/>
<feGaussianBlur stdDeviation="3" result="effect1_foregroundBlur"/>
</filter>
</defs>
</svg>
