<svg width="27" height="27" viewBox="0 0 27 27" fill="none" xmlns="http://www.w3.org/2000/svg">
<path d="M19.2496 10.7003C19.2496 10.5582 19.2471 10.4174 19.2408 10.2779C19.8339 9.82463 20.3483 9.2575 20.7554 8.60841C20.211 8.85937 19.6266 9.02707 19.0123 9.09744C19.6391 8.70184 20.1198 8.0694 20.3471 7.31022C19.7602 7.67508 19.111 7.93626 18.4205 8.07198C17.8674 7.4267 17.0783 7.01577 16.2055 7.0004C14.53 6.97224 13.1715 8.42405 13.1715 10.2432C13.1715 10.5018 13.1977 10.7528 13.2502 10.9947C10.7269 10.8283 8.4907 9.48149 6.99489 7.45105C6.73394 7.93755 6.58412 8.50597 6.58412 9.11539C6.58412 10.2676 7.11975 11.2918 7.93379 11.8961C7.43564 11.8731 6.96867 11.7182 6.55916 11.4646C6.55916 11.4787 6.55916 11.4928 6.55916 11.5069C6.55916 13.1175 7.60547 14.4668 8.99384 14.7818C8.73912 14.856 8.47068 14.8944 8.19474 14.8932C7.99874 14.8919 7.80893 14.8701 7.62414 14.8291C8.00996 16.1491 9.13118 17.1131 10.4584 17.1451C9.41955 18.0284 8.11108 18.5559 6.69022 18.5521C6.44547 18.5521 6.20329 18.5354 5.96603 18.5047C7.30951 19.4495 8.90389 20 10.6181 20C16.198 20.0013 19.2496 15.0212 19.2496 10.7003Z" fill="white"/>
<path d="M26.6713 13.5C26.6713 6.04429 20.7119 0 13.3609 0C6.00994 0 0.0505371 6.04429 0.0505371 13.5C0.0505371 20.9557 6.00994 27 13.3609 27C20.7119 27 26.6713 20.9557 26.6713 13.5ZM1.26056 13.5C1.26056 6.72177 6.6779 1.22726 13.3609 1.22726C20.044 1.22726 25.4613 6.72177 25.4613 13.5C25.4613 20.2782 20.044 25.7727 13.3609 25.7727C6.6779 25.7727 1.26056 20.2782 1.26056 13.5Z" fill="white"/>
</svg>
