<svg width="77" height="78" viewBox="0 0 77 78" fill="none" xmlns="http://www.w3.org/2000/svg">
<path d="M66.0636 78H2.26627C1.01461 78 0 76.9854 0 75.7337V39.1396C0 37.8879 1.01461 36.8733 2.26627 36.8733C3.51792 36.8733 4.53253 37.8879 4.53253 39.1396V73.4675H63.7975V68.4656C63.7975 67.2139 64.8122 66.1993 66.0637 66.1993C67.3152 66.1993 68.33 67.2139 68.33 68.4656V75.7337C68.3298 76.9854 67.3151 78 66.0636 78Z" fill="#A1A1A1"/>
<path d="M2.26562 26.9835V26.2537L26.0002 2.2663V26.9835H2.26562Z" fill="#157FCC"/>
<path d="M74.2378 33.4296H29.1348V58.3606H74.2378V33.4296Z" fill="#157FCC"/>
<path d="M74.2379 31.1633H68.3297V2.26627C68.3297 1.01461 67.3149 0 66.0634 0H26.0007C25.9728 0 25.9454 0.00319922 25.9175 0.00411328C25.892 0.00502734 25.8669 0.00609375 25.8416 0.00792188C25.7437 0.0149297 25.6463 0.0258984 25.5508 0.0452461C25.5488 0.0457031 25.5467 0.0463125 25.5444 0.0467695C25.4504 0.0659648 25.3585 0.0932344 25.2679 0.124312C25.2443 0.132539 25.2208 0.140918 25.1974 0.149754C25.1082 0.183574 25.0208 0.221203 24.9367 0.26584C24.9338 0.267363 24.9303 0.268582 24.9274 0.27041C24.8409 0.316875 24.7586 0.370957 24.6783 0.428848C24.6577 0.443777 24.6375 0.458707 24.6174 0.474398C24.5379 0.535641 24.4608 0.600387 24.3893 0.672445L0.655078 24.6596C0.601758 24.7134 0.551789 24.7694 0.504563 24.8278C0.473027 24.8665 0.445453 24.9071 0.416813 24.9472C0.402797 24.9672 0.387105 24.9862 0.373699 25.0063C0.341098 25.0557 0.312 25.1069 0.283512 25.1584C0.276504 25.171 0.268277 25.183 0.261727 25.1957C0.233848 25.2485 0.209625 25.3025 0.186316 25.3566C0.18068 25.3697 0.173824 25.3821 0.168645 25.3956C0.147316 25.4475 0.129645 25.5005 0.11243 25.5537C0.106945 25.5707 0.100242 25.587 0.0952148 25.604C0.0807422 25.6529 0.0693165 25.7024 0.0583477 25.7519C0.0533204 25.7743 0.0467695 25.7965 0.0421992 25.8192C0.0333633 25.8649 0.0277266 25.9112 0.0217852 25.9574C0.0181289 25.9844 0.0131016 26.0109 0.0105118 26.0381C0.00624613 26.0843 0.00533206 26.1306 0.00365628 26.1771C0.00274221 26.2025 0 26.2277 0 26.2529V26.983C0 28.2346 1.01461 29.2492 2.26627 29.2492H26.0008C27.2525 29.2492 28.2671 28.2346 28.2671 26.983V4.53253H63.7975V31.1633H29.1351C27.8835 31.1633 26.8689 32.1779 26.8689 33.4296V58.3597C26.8689 59.6114 27.8835 60.626 29.1351 60.626H74.2379C75.4894 60.626 76.5041 59.6114 76.5041 58.3597V33.4296C76.5041 32.1779 75.4894 31.1633 74.2379 31.1633ZM6.97445 24.7172L23.7344 7.77867V24.7172H6.97445ZM71.9716 56.0934H31.4014V35.6958H71.9718V56.0934H71.9716Z" fill="#A1A1A1"/>
<path d="M38.2041 47.8169L35.7555 51.9762C35.638 52.1607 35.4032 52.2445 35.135 52.2445C34.4138 52.2445 33.3906 51.6742 33.3906 50.9532C33.3906 50.8022 33.4409 50.6514 33.5418 50.4837L36.4433 46.0058L33.6592 41.5448C33.5418 41.3603 33.4915 41.1925 33.4915 41.0248C33.4915 40.3205 34.4474 39.7835 35.1855 39.7835C35.5545 39.7835 35.806 39.9177 35.9738 40.2195L38.2044 44.1104L40.4348 40.2195C40.6026 39.9177 40.8544 39.7835 41.2232 39.7835C41.9612 39.7835 42.9173 40.3202 42.9173 41.0248C42.9173 41.1925 42.8667 41.3603 42.7496 41.5448L39.9655 46.0058L42.867 50.4837C42.9676 50.6514 43.018 50.8024 43.018 50.9532C43.018 51.6744 41.995 52.2445 41.2738 52.2445C41.0055 52.2445 40.7539 52.1607 40.6533 51.9762L38.2041 47.8169Z" fill="white"/>
<path d="M45.1972 52.1438C44.6269 52.1438 44.0566 51.8755 44.0566 51.3388V40.6721C44.0566 40.1187 44.711 39.8839 45.3647 39.8839C46.019 39.8839 46.6727 40.1187 46.6727 40.6721V49.8629H50.4965C50.9999 49.8629 51.2514 50.4333 51.2514 51.0035C51.2514 51.5737 50.9999 52.1439 50.4965 52.1439H45.1971V52.1438H45.1972Z" fill="white"/>
<path d="M57.3393 48.8566C57.3393 46.8272 52.0226 47.1793 52.0226 43.2549C52.0226 40.7391 54.2198 39.7833 56.316 39.7833C57.2051 39.7833 59.6537 39.9511 59.6537 41.2594C59.6537 41.7121 59.3519 42.6346 58.6136 42.6346C58.0099 42.6346 57.6912 41.9973 56.3158 41.9973C55.1251 41.9973 54.6388 42.4836 54.6388 43.0036C54.6388 44.6809 59.9555 44.3622 59.9555 48.5885C59.9555 51.0036 58.1944 52.3118 55.7625 52.3118C53.5656 52.3118 51.7207 51.2385 51.7207 50.1314C51.7207 49.5611 52.224 48.7226 52.8611 48.7226C53.6495 48.7226 54.1524 49.9638 55.7123 49.9638C56.484 49.9637 57.3393 49.6618 57.3393 48.8566Z" fill="white"/>
<path d="M65.2879 47.8169L62.8393 51.9762C62.7217 52.1607 62.4869 52.2445 62.2188 52.2445C61.4974 52.2445 60.4746 51.6742 60.4746 50.9532C60.4746 50.8022 60.5249 50.6514 60.6256 50.4837L63.5271 46.0058L60.743 41.5448C60.6256 41.3603 60.5753 41.1925 60.5753 41.0248C60.5753 40.3205 61.5314 39.7835 62.2694 39.7835C62.6383 39.7835 62.8899 39.9177 63.0578 40.2195L65.2884 44.1104L67.519 40.2195C67.6864 39.9177 67.9382 39.7835 68.3072 39.7835C69.0453 39.7835 70.0013 40.3202 70.0013 41.0248C70.0013 41.1925 69.951 41.3603 69.8335 41.5448L67.0496 46.0058L69.9512 50.4837C70.0517 50.6514 70.1021 50.8024 70.1021 50.9532C70.1021 51.6744 69.0788 52.2445 68.3579 52.2445C68.0894 52.2445 67.8378 52.1607 67.7374 51.9762L65.2879 47.8169Z" fill="white"/>
</svg>
