<svg width="27" height="27" viewBox="0 0 27 27" fill="none" xmlns="http://www.w3.org/2000/svg">
<path d="M11.3062 16C13.2835 15.0002 15.2437 14.0096 17.2219 13.0093C15.2377 11.9998 13.2782 11.0035 11.3062 10C11.3062 12.0069 11.3062 13.9933 11.3062 16Z" fill="white"/>
<path d="M13.2778 0C6.19921 0 0.460419 6.04413 0.460419 13.5C0.460419 20.9559 6.19921 27 13.2778 27C20.3565 27 26.0953 20.9559 26.0953 13.5C26.0953 6.04413 20.3565 0 13.2778 0ZM22.011 18.0062C21.7891 19.0199 21.0019 19.7676 20.0543 19.8789C17.8103 20.1432 15.5392 20.1446 13.2773 20.1432C11.0154 20.1446 8.74381 20.1432 6.49923 19.8789C5.55172 19.7676 4.76497 19.0199 4.54363 18.0062C4.22815 16.5621 4.22815 14.9863 4.22815 13.5C4.22815 12.0137 4.23182 10.4373 4.54731 8.99383C4.76864 7.98012 5.55539 7.23213 6.5029 7.12054C8.74749 6.85648 11.0191 6.8551 13.281 6.85648C15.5424 6.8551 17.814 6.85648 20.0578 7.12054C21.0058 7.23213 21.7931 7.97985 22.0144 8.99383C22.3299 10.4376 22.3273 12.0137 22.3273 13.5C22.3273 14.9863 22.3265 16.5624 22.011 18.0062Z" fill="white"/>
</svg>
